<svg xmlns="http://www.w3.org/2000/svg" xmlns:xlink="http://www.w3.org/1999/xlink" viewBox="0,0,256,256" width="100px" height="100px" fill-rule="nonzero"><g fill="#d3fbd8" fill-rule="nonzero" stroke="none" stroke-width="1" stroke-linecap="butt" stroke-linejoin="miter" stroke-miterlimit="10" stroke-dasharray="" stroke-dashoffset="0" font-family="none" font-weight="none" font-size="none" text-anchor="none" style="mix-blend-mode: normal"><g transform="scale(2.56,2.56)"><path d="M30,13c-1.654,0 -3,1.346 -3,3v15.52344l-22.06641,15.42773c-1.93643,1.35416 -2.50651,3.98361 -1.30273,6.01758l16.44531,27.78516c0.08652,0.14693 0.24195,0.23965 0.41235,0.24598c0.1704,0.00633 0.33227,-0.07461 0.42945,-0.21473l6.08203,-8.76758v9.98242c0,2.757 2.243,5 5,5h48c2.757,0 5,-2.243 5,-5v-66c0,-1.654 -1.346,-3 -3,-3zM30,15h52c0.551,0 1,0.448 1,1v14h-5.5c-0.18032,-0.00255 -0.34804,0.09219 -0.43894,0.24794c-0.0909,0.15575 -0.0909,0.34838 0,0.50413c0.0909,0.15575 0.25863,0.25049 0.43894,0.24794h5.5v4.89844l-2.72266,-1.81445c-0.16795,-0.11195 -0.38674,-0.11195 -0.55469,0l-2.72266,1.81445l-2.72266,-1.81445c-0.16795,-0.11195 -0.38674,-0.11195 -0.55469,0l-2.72266,1.81445l-2.72266,-1.81445c-0.16795,-0.11195 -0.38674,-0.11195 -0.55469,0l-2.72266,1.81445l-2.72266,-1.81445c-0.16795,-0.11195 -0.38674,-0.11195 -0.55469,0l-2.72266,1.81445l-2.72266,-1.81445c-0.16795,-0.11195 -0.38674,-0.11195 -0.55469,0l-2.72266,1.81445l-0.64453,-0.42969l2.55469,-3.68359c0.12644,-0.1816 0.1185,-0.4247 -0.01953,-0.59766l-0.15039,-0.1875h15.75977c0.18032,0.00255 0.34804,-0.09219 0.43894,-0.24794c0.0909,-0.15575 0.0909,-0.34838 0,-0.50413c-0.0909,-0.15575 -0.25863,-0.25049 -0.43894,-0.24794h-16.56055l-0.88867,-1.11133l0.92969,-3.25195c0.07332,-0.25717 -0.06866,-0.5265 -0.32227,-0.61133l-2.65625,-0.88477v-2.64062c-0.00003,-0.27613 -0.22387,-0.49997 -0.5,-0.5h-2.63867l-0.88672,-2.6582c-0.07087,-0.21339 -0.27544,-0.35323 -0.5,-0.3418c-0.09395,0.00473 -0.18467,0.03587 -0.26172,0.08984l-3.82617,2.67578c-0.61488,-1.01173 -1.62386,-1.76562 -2.88867,-1.76562c-1.92717,0 -3.5,1.57283 -3.5,3.5c0,0.8288 0.34794,1.54739 0.83203,2.14844l-7.83203,5.47656v-14.125c0,-0.552 0.449,-1 1,-1zM72.5,19c-1.125,0 -2.03141,0.43988 -2.62305,1.10547c-0.59164,0.66559 -0.87695,1.53342 -0.87695,2.39453c0,0.86111 0.28532,1.72894 0.87695,2.39453c0.59164,0.66559 1.49805,1.10547 2.62305,1.10547c1.125,0 2.03141,-0.43988 2.62305,-1.10547c0.59164,-0.66559 0.87695,-1.53342 0.87695,-2.39453c0,-0.86111 -0.28532,-1.72894 -0.87695,-2.39453c-0.59164,-0.66559 -1.49805,-1.10547 -2.62305,-1.10547zM46.24023,19.29492l0.78711,2.36328c0.06813,0.20422 0.25932,0.34191 0.47461,0.3418h2.5v2.5c-0.00011,0.21528 0.13758,0.40648 0.3418,0.47461l2.54492,0.84766l-0.86914,3.04102c-0.04444,0.15546 -0.01097,0.32281 0.08984,0.44922l1.15234,1.43945c0.0243,0.04191 0.05457,0.08007 0.08984,0.11328l0.52539,0.65625l-33.33789,48.05274l-16.04687,-27.11523c-0.94222,-1.59203 -0.50189,-3.62766 1.01367,-4.6875zM39.5,20c0.93372,0 1.6758,0.5594 2.10547,1.3125l-3.90234,2.72852c-0.36872,-0.43485 -0.70312,-0.92288 -0.70312,-1.54102c0,-1.38683 1.11317,-2.5 2.5,-2.5zM72.5,20c0.875,0 1.46859,0.31012 1.87695,0.76953c0.40836,0.45941 0.62305,1.09158 0.62305,1.73047c0,0.63889 -0.21468,1.27106 -0.62305,1.73047c-0.40836,0.45941 -1.00195,0.76953 -1.87695,0.76953c-0.875,0 -1.46859,-0.31012 -1.87695,-0.76953c-0.40836,-0.45941 -0.62305,-1.09158 -0.62305,-1.73047c0,-0.63889 0.21468,-1.27106 0.62305,-1.73047c0.40836,-0.45941 1.00195,-0.76953 1.87695,-0.76953zM73.5,30c-0.18032,-0.00255 -0.34804,0.09219 -0.43894,0.24794c-0.0909,0.15575 -0.0909,0.34838 0,0.50413c0.0909,0.15575 0.25863,0.25049 0.43894,0.24794h1c0.18032,0.00255 0.34804,-0.09219 0.43894,-0.24794c0.0909,-0.15575 0.0909,-0.34838 0,-0.50413c-0.0909,-0.15575 -0.25863,-0.25049 -0.43894,-0.24794zM56,35.10156l2.72266,1.81445c0.16795,0.11195 0.38674,0.11195 0.55469,0l2.72266,-1.81445l2.72266,1.81445c0.16795,0.11195 0.38674,0.11195 0.55469,0l2.72266,-1.81445l2.72266,1.81445c0.16795,0.11195 0.38674,0.11195 0.55469,0l2.72266,-1.81445l2.72266,1.81445c0.16795,0.11195 0.38674,0.11195 0.55469,0l2.72266,-1.81445l2.72266,1.81445c0.08213,0.05476 0.17863,0.08398 0.27734,0.08398v45c0,1.654 -1.346,3 -3,3h-48c-1.654,0 -3,-1.346 -3,-3v-12.86523l22.78516,-32.84375l0.9375,0.625c0.16795,0.11195 0.38674,0.11195 0.55469,0zM57.03906,42c-0.31,0 -0.58317,0.16419 -0.82617,0.49219c0,0 -2.86383,3.94948 -2.92383,4.02148c-0.193,0.234 -0.28906,0.49139 -0.28906,0.77539c0,0.263 0.08205,0.48883 0.24805,0.67383c0.165,0.186 0.37028,0.27734 0.61328,0.27734c0.243,0 0.45191,-0.12958 0.62891,-0.39258l1.32422,-2.13477v18.43359c0,0.262 0.10445,0.47005 0.31445,0.62305c0.209,0.154 0.46834,0.23047 0.77734,0.23047c0.287,0 0.54267,-0.07647 0.76367,-0.23047c0.221,-0.153 0.33008,-0.36105 0.33008,-0.62305v-21.32617c0,-0.241 -0.09983,-0.43684 -0.29883,-0.58984c-0.199,-0.153 -0.41911,-0.23047 -0.66211,-0.23047zM37.5,70c-0.18032,-0.00255 -0.34804,0.09219 -0.43894,0.24794c-0.0909,0.15575 -0.0909,0.34838 0,0.50413c0.0909,0.15575 0.25863,0.25049 0.43894,0.24794h24c0.18032,0.00255 0.34804,-0.09219 0.43894,-0.24794c0.0909,-0.15575 0.0909,-0.34838 0,-0.50413c-0.0909,-0.15575 -0.25863,-0.25049 -0.43894,-0.24794zM64.5,70c-0.18032,-0.00255 -0.34804,0.09219 -0.43894,0.24794c-0.0909,0.15575 -0.0909,0.34838 0,0.50413c0.0909,0.15575 0.25863,0.25049 0.43894,0.24794h9.90625c0.18032,0.00255 0.34804,-0.09219 0.43894,-0.24794c0.0909,-0.15575 0.0909,-0.34838 0,-0.50413c-0.0909,-0.15575 -0.25863,-0.25049 -0.43894,-0.24794zM44.5,75c-0.18032,-0.00255 -0.34804,0.09219 -0.43894,0.24794c-0.0909,0.15575 -0.0909,0.34838 0,0.50413c0.0909,0.15575 0.25863,0.25049 0.43894,0.24794h23c0.18032,0.00255 0.34804,-0.09219 0.43894,-0.24794c0.0909,-0.15575 0.0909,-0.34838 0,-0.50413c-0.0909,-0.15575 -0.25863,-0.25049 -0.43894,-0.24794z"></path></g></g></svg>