<svg xmlns="http://www.w3.org/2000/svg" xmlns:xlink="http://www.w3.org/1999/xlink" viewBox="0,0,256,256" width="100px" height="100px" fill-rule="nonzero"><g fill="#d3fbd8" fill-rule="nonzero" stroke="none" stroke-width="1" stroke-linecap="butt" stroke-linejoin="miter" stroke-miterlimit="10" stroke-dasharray="" stroke-dashoffset="0" font-family="none" font-weight="none" font-size="none" text-anchor="none" style="mix-blend-mode: normal"><g transform="scale(2.56,2.56)"><path d="M20.5,19c-0.17151,0.0006 -0.33075,0.08907 -0.42187,0.23438h-0.00195l-2.97852,4.76563h-2.09766c-2.757,0 -5,2.243 -5,5v44c0,2.757 2.243,5 5,5h29.38086c0.631,1.067 2.30214,3 6.11914,3c3.817,0 5.48814,-1.933 6.11914,-3h22.82422l6.91602,6.91797c1.08479,1.08479 2.70586,1.27828 4.25977,0.9043c1.55391,-0.37399 3.14593,-1.29827 4.52539,-2.67773c1.37942,-1.37942 2.30374,-2.97158 2.67773,-4.52539c0.374,-1.55381 0.18015,-3.17462 -0.9043,-4.25977l-5.91797,-5.91602v-39.44336c0,-2.757 -2.243,-5 -5,-5h-2.09766l-2.96289,-4.74023c-0.08792,-0.16047 -0.25647,-0.2601 -0.43945,-0.25977c-11.04546,0 -18.59755,1.50675 -23.40039,3.02344c-4.36568,1.37864 -6.24809,2.65431 -6.59961,2.90039c-0.35152,-0.24608 -2.23393,-1.52175 -6.59961,-2.90039c-4.80284,-1.51669 -12.35494,-3.02344 -23.40039,-3.02344zM21,20.01758c10.65996,0.0481 17.98002,1.50017 22.59961,2.95898c4.06726,1.2844 5.94468,2.47824 6.40039,2.79102v33.73242c-0.00255,0.18032 0.09219,0.34804 0.24794,0.43894c0.15575,0.0909 0.34838,0.0909 0.50413,0c0.15575,-0.0909 0.25049,-0.25863 0.24794,-0.43894v-33.73242c0.45571,-0.31278 2.33313,-1.50662 6.40039,-2.79102c4.61959,-1.45882 11.93965,-2.91088 22.59961,-2.95898v33.48242c-0.00255,0.18032 0.09219,0.34804 0.24794,0.43894c0.15575,0.0909 0.34838,0.0909 0.50413,0c0.15575,-0.0909 0.25049,-0.25863 0.24794,-0.43894v-32.25586l4,6.39844v34.80078l-10.22266,-10.2207c-0.10237,-0.10203 -0.22565,-0.18066 -0.36133,-0.23047l-13.36719,-4.92969c-0.12549,-0.04623 -0.25899,-0.06682 -0.39258,-0.06055c-0.2486,0.01149 -0.48398,0.11525 -0.66016,0.29102l-0.70312,0.70313c-0.27548,0.27597 -0.36545,0.6869 -0.23047,1.05273l4.92773,13.36719c0.05038,0.13586 0.12969,0.25914 0.23242,0.36133l9.2207,9.22266h-22.79297c-0.35979,-0.25127 -2.39541,-1.60143 -6.75,-2.97656c-4.72427,-1.49187 -12.14788,-2.95776 -22.90039,-3.00586zM20,21.24414v45.07422l-4,4.79883v-43.47461zM26.47656,25c-0.27351,0.00265 -0.49413,0.22456 -0.4952,0.49807c-0.00107,0.27352 0.21782,0.49714 0.4913,0.50193c3.83036,0.20783 7.12276,0.63508 9.93555,1.16211c0.17855,0.04019 0.3648,-0.02038 0.48556,-0.15791c0.12076,-0.13753 0.15674,-0.33004 0.09379,-0.5019c-0.06294,-0.17186 -0.21474,-0.2956 -0.39576,-0.32261c-2.85522,-0.53498 -6.19081,-0.96951 -10.06445,-1.17969c-0.01692,-0.00086 -0.03387,-0.00086 -0.05078,0zM74.47266,25c-9.14062,0.49776 -15.31885,2.23114 -19.14453,3.62891c-0.16784,0.06139 -0.29017,0.20766 -0.32091,0.38371c-0.03074,0.17605 0.03478,0.35512 0.17189,0.46976c0.1371,0.11463 0.32495,0.14741 0.49277,0.08598c3.75032,-1.37023 9.81609,-3.07612 18.85547,-3.56836c0.27604,-0.01522 0.48752,-0.25128 0.47242,-0.52733c-0.0151,-0.27605 -0.25105,-0.48764 -0.52711,-0.47267zM15,26h0.84766l-0.77148,1.23438c-0.04984,0.07963 -0.07624,0.17169 -0.07617,0.26563v45c0.00003,0.27613 0.22387,0.49997 0.5,0.5h29.68359c0.14364,0.3135 0.3977,0.78832 0.96289,1.35352c0.82857,0.82857 2.22852,1.64648 4.35352,1.64648c2.125,0 3.52495,-0.81792 4.35352,-1.64648c0.56519,-0.5652 0.81925,-1.04002 0.96289,-1.35352h18.62695l3,3h-21.44336c-0.421,0 -0.80036,0.27587 -0.94336,0.67188c-0.035,0.095 -0.89064,2.32813 -4.55664,2.32813c-3.666,0 -4.52173,-2.23341 -4.55273,-2.31641c-0.135,-0.409 -0.51627,-0.68359 -0.94727,-0.68359h-30c-1.654,0 -3,-1.346 -3,-3v-44c0,-1.654 1.346,-3 3,-3zM85.15234,26h0.84766c1.654,0 3,1.346 3,3v37.44336l-3,-3v-35.94336c0.00006,-0.09394 -0.02634,-0.186 -0.07617,-0.26562zM39.4668,26.80664c-0.25086,0.01181 -0.45405,0.20785 -0.47482,0.45813c-0.02077,0.25028 0.14731,0.47714 0.39279,0.53015c1.08013,0.25788 2.0693,0.52454 2.97266,0.79297c0.17131,0.05097 0.35681,0.00666 0.48659,-0.11623c0.12978,-0.12289 0.18414,-0.30569 0.14259,-0.47953c-0.04155,-0.17384 -0.1727,-0.3123 -0.34402,-0.36322c-0.92064,-0.27357 -1.92948,-0.54452 -3.02734,-0.80664c-0.04842,-0.0126 -0.09845,-0.01787 -0.14844,-0.01562zM44.46484,28.24609c-0.24012,0.01358 -0.43655,0.19617 -0.46762,0.43466c-0.03107,0.23849 0.11204,0.46531 0.34067,0.53995c0.34576,0.11823 0.67965,0.23427 0.99023,0.34766c0.16782,0.06143 0.35567,0.02865 0.49277,-0.08598c0.1371,-0.11463 0.20263,-0.29371 0.17189,-0.46976c-0.03074,-0.17605 -0.15307,-0.32232 -0.32091,-0.38371c-0.31941,-0.11661 -0.65953,-0.2357 -1.00977,-0.35547c-0.06326,-0.02225 -0.13034,-0.03155 -0.19727,-0.02734zM26.47656,32c-0.27351,0.00265 -0.49413,0.22456 -0.4952,0.49807c-0.00107,0.27352 0.21782,0.49714 0.4913,0.50193c9.03932,0.49125 15.10508,2.1981 18.85547,3.56836c0.16782,0.06143 0.35567,0.02865 0.49277,-0.08598c0.1371,-0.11463 0.20263,-0.29371 0.17189,-0.46976c-0.03074,-0.17605 -0.15307,-0.32232 -0.32091,-0.38371c-3.82561,-1.39774 -10.00385,-3.13215 -19.14453,-3.62891c-0.01692,-0.00086 -0.03387,-0.00086 -0.05078,0zM68.49219,32.54102c-0.00717,0.0005 -0.01434,0.00115 -0.02148,0.00195c-0.01176,0.00089 -0.02349,0.00219 -0.03516,0.00391c-1.05621,0.1358 -2.06457,0.2868 -3.01953,0.45117c-0.18398,0.02112 -0.34122,0.14218 -0.40867,0.31464c-0.06745,0.17246 -0.03408,0.36808 0.08675,0.50842c0.12083,0.14033 0.30932,0.2024 0.48989,0.16132c0.93904,-0.16163 1.93668,-0.30916 2.98047,-0.44336c0.2756,-0.01996 0.48285,-0.25955 0.46289,-0.53516c-0.01996,-0.2756 -0.25955,-0.48285 -0.53516,-0.46289zM61.51758,33.80664c-0.04477,-0.00076 -0.08944,0.00449 -0.13281,0.01563c-2.45316,0.58481 -4.46232,1.22367 -6.05664,1.80664c-0.16784,0.06139 -0.29017,0.20766 -0.32091,0.38371c-0.03074,0.17605 0.03478,0.35512 0.17189,0.46976c0.1371,0.11463 0.32495,0.14741 0.49277,0.08598c1.56168,-0.57103 3.53052,-1.19824 5.94336,-1.77344c0.24738,-0.05452 0.41491,-0.28542 0.39,-0.5375c-0.02491,-0.25209 -0.23439,-0.44573 -0.48766,-0.45078zM26.47656,39c-0.27351,0.00265 -0.49413,0.22456 -0.4952,0.49807c-0.00107,0.27352 0.21782,0.49714 0.4913,0.50193c1.76986,0.09645 3.4234,0.24008 4.9707,0.41797c0.27452,0.03128 0.52243,-0.16591 0.55371,-0.44043c0.03128,-0.27452 -0.16591,-0.52243 -0.44043,-0.55371c-1.5667,-0.18011 -3.23916,-0.32628 -5.0293,-0.42383c-0.01692,-0.00086 -0.03387,-0.00086 -0.05078,0zM35.48438,39.98828c-0.25968,0.00425 -0.47288,0.20658 -0.49069,0.46568c-0.01782,0.2591 0.16568,0.48871 0.42233,0.52846c4.31721,0.74154 7.56659,1.72951 9.91211,2.58594c0.16782,0.06143 0.35567,0.02865 0.49277,-0.08598c0.1371,-0.11463 0.20263,-0.29371 0.17189,-0.46976c-0.03074,-0.17605 -0.15307,-0.32232 -0.32091,-0.38371c-2.39248,-0.87358 -5.7071,-1.8784 -10.08789,-2.63086c-0.03279,-0.00658 -0.06616,-0.00985 -0.09961,-0.00977zM26.47656,46c-0.27351,0.00265 -0.49413,0.22456 -0.4952,0.49807c-0.00107,0.27352 0.21782,0.49714 0.4913,0.50193c9.03932,0.49125 15.10508,2.1981 18.85547,3.56836c0.16782,0.06143 0.35567,0.02865 0.49277,-0.08598c0.1371,-0.11463 0.20263,-0.29371 0.17189,-0.46976c-0.03074,-0.17605 -0.15307,-0.32232 -0.32091,-0.38371c-3.82561,-1.39774 -10.00385,-3.13215 -19.14453,-3.62891c-0.01692,-0.00086 -0.03387,-0.00086 -0.05078,0zM61.2793,49.2793l2.72852,1.00586l-1.72266,1.7207zM65.04102,50.66602l6.64648,2.45117l-6.57031,6.57031l-2.45117,-6.64844zM26.47656,53c-0.27351,0.00265 -0.49413,0.22456 -0.4952,0.49807c-0.00107,0.27352 0.21782,0.49714 0.4913,0.50193c4.77114,0.25954 8.70781,0.85812 11.91992,1.56641c0.17593,0.04226 0.36098,-0.01381 0.48385,-0.14663c0.12288,-0.13282 0.16442,-0.32165 0.10863,-0.49378c-0.05579,-0.17212 -0.20021,-0.30068 -0.37764,-0.33616c-3.2639,-0.71971 -7.25522,-1.32738 -12.08008,-1.58984c-0.01692,-0.00086 -0.03387,-0.00086 -0.05078,0zM73.67969,53.95313l15.97656,15.97461l-2.01172,2.00977l-15.97461,-15.97461zM42.49414,55.60742c-0.24872,0.001 -0.4589,0.18464 -0.49326,0.43099c-0.03435,0.24634 0.11757,0.48048 0.35654,0.54948c1.11672,0.33194 2.10759,0.66571 2.9707,0.98047c0.16782,0.06143 0.35567,0.02865 0.49277,-0.08598c0.1371,-0.11463 0.20263,-0.29371 0.17189,-0.46976c-0.03074,-0.17605 -0.15307,-0.32232 -0.32091,-0.38371c-0.88089,-0.32124 -1.89202,-0.66195 -3.0293,-1c-0.04812,-0.01458 -0.09816,-0.02183 -0.14844,-0.02148zM70.96289,56.66992l15.97461,15.97461l-2.29297,2.29297l-11.79102,-11.79102c-0.09421,-0.09737 -0.22389,-0.15234 -0.35937,-0.15234c-0.20372,0.00004 -0.38705,0.12367 -0.46345,0.31252c-0.0764,0.18885 -0.03059,0.40518 0.1158,0.54685l11.79102,11.79102l-2.00977,2.01172l-15.97461,-15.97656zM69.49414,59.99414c-0.20372,0.00004 -0.38705,0.12367 -0.46345,0.31252c-0.0764,0.18885 -0.03059,0.40518 0.1158,0.54685l1,1c0.12541,0.13061 0.31163,0.18321 0.48684,0.13753c0.17521,-0.04568 0.31204,-0.18251 0.35772,-0.35772c0.04568,-0.17521 -0.00693,-0.36143 -0.13753,-0.48684l-1,-1c-0.09421,-0.09737 -0.22389,-0.15234 -0.35937,-0.15234zM26.47656,60c-0.27351,0.00265 -0.49413,0.22456 -0.4952,0.49807c-0.00107,0.27352 0.21782,0.49714 0.4913,0.50193c9.03932,0.49125 15.10508,2.1981 18.85547,3.56836c0.16782,0.06143 0.35567,0.02865 0.49277,-0.08598c0.1371,-0.11463 0.20263,-0.29371 0.17189,-0.46976c-0.03074,-0.17605 -0.15307,-0.32232 -0.32091,-0.38371c-3.82561,-1.39774 -10.00385,-3.13215 -19.14453,-3.62891c-0.01692,-0.00086 -0.03387,-0.00086 -0.05078,0zM50.49219,61.99219c-0.13261,0.00207 -0.25896,0.05673 -0.35127,0.15197c-0.0923,0.09523 -0.14299,0.22324 -0.14092,0.35584v2c-0.00255,0.18032 0.09219,0.34804 0.24794,0.43894c0.15575,0.0909 0.34838,0.0909 0.50413,0c0.15575,-0.0909 0.25049,-0.25863 0.24794,-0.43894v-2c0.00212,-0.13532 -0.0507,-0.26572 -0.1464,-0.36141c-0.0957,-0.0957 -0.22609,-0.14852 -0.36141,-0.1464zM50.49219,66.99219c-0.13261,0.00207 -0.25896,0.05673 -0.35127,0.15197c-0.0923,0.09523 -0.14299,0.22324 -0.14092,0.35584v1c-0.00255,0.18032 0.09219,0.34804 0.24794,0.43894c0.15575,0.0909 0.34838,0.0909 0.50413,0c0.15575,-0.0909 0.25049,-0.25863 0.24794,-0.43894v-1c0.00212,-0.13532 -0.0507,-0.26572 -0.1464,-0.36141c-0.0957,-0.0957 -0.22609,-0.14852 -0.36141,-0.1464zM20.73242,67.00391c10.82265,0.02175 18.20462,1.50027 22.86719,2.97266c2.35855,0.74481 4.00805,1.47716 5.07031,2.02344h-3.0918c-0.03292,-0.00527 -0.06629,-0.00723 -0.09961,-0.00586c-0.01963,0.0008 -0.03919,0.00276 -0.05859,0.00586h-28.85156zM64.49805,67.26758c-0.02817,0.00023 -0.05626,0.00285 -0.08398,0.00781c-2.92258,0.51362 -5.34928,1.129 -7.30859,1.74805c-0.172,0.05268 -0.30244,0.19368 -0.34161,0.36925c-0.03917,0.17557 0.01898,0.35864 0.15228,0.47943c0.1333,0.12079 0.3212,0.16067 0.49207,0.10445c1.91469,-0.60495 4.29631,-1.21041 7.17773,-1.7168c0.2547,-0.04585 0.43234,-0.27847 0.4095,-0.53626c-0.02284,-0.25779 -0.23859,-0.45556 -0.49739,-0.45593zM91.07031,71.3418l1.94141,1.93945l-4.86523,4.86523c-0.13061,0.12541 -0.18321,0.31163 -0.13753,0.48684c0.04568,0.17521 0.18251,0.31204 0.35772,0.35772c0.17521,0.04568 0.36143,-0.00693 0.48684,-0.13753l4.86523,-4.86523l1.78516,1.78516c0.46055,0.46085 0.643,1.26351 0.375,2.37695c-0.268,1.11344 -1.00285,2.43449 -2.14844,3.58008c-1.14554,1.14553 -2.46648,1.88042 -3.58008,2.14844c-1.1136,0.26801 -1.91674,0.08521 -2.37695,-0.375l-1.78516,-1.78516l0.86523,-0.86523c0.14714,-0.14386 0.19113,-0.36316 0.11086,-0.55264c-0.08028,-0.18947 -0.26844,-0.31042 -0.47414,-0.30478c-0.12976,0.00361 -0.25303,0.05754 -0.34375,0.15039l-0.86523,0.86523l-1.93945,-1.94141zM46.33008,73h8.33984c-0.13181,0.19839 -0.29135,0.4144 -0.52344,0.64648c-0.67143,0.67143 -1.77148,1.35352 -3.64648,1.35352c-1.875,0 -2.97505,-0.68208 -3.64648,-1.35352c-0.23208,-0.23208 -0.39163,-0.4481 -0.52344,-0.64648z"></path></g></g></svg>