<svg xmlns="http://www.w3.org/2000/svg" xmlns:xlink="http://www.w3.org/1999/xlink" viewBox="0,0,256,256" width="100px" height="100px" fill-rule="nonzero"><g fill="#d3fbd8" fill-rule="nonzero" stroke="none" stroke-width="1" stroke-linecap="butt" stroke-linejoin="miter" stroke-miterlimit="10" stroke-dasharray="" stroke-dashoffset="0" font-family="none" font-weight="none" font-size="none" text-anchor="none" style="mix-blend-mode: normal"><g transform="scale(2.56,2.56)"><path d="M50,12c-15.45242,0 -28,12.54759 -28,28c0,8.5625 6.8913,20.26574 13.67773,30.06836c6.78643,9.80262 13.56836,17.58789 13.56836,17.58789c0.18993,0.2179 0.46485,0.34297 0.75391,0.34297c0.28906,0 0.56398,-0.12507 0.75391,-0.34297c0,0 6.78193,-7.78527 13.56836,-17.58789c6.78643,-9.80262 13.67773,-21.50586 13.67773,-30.06836c0,-15.45241 -12.54758,-28 -28,-28zM50,14c14.37158,0 26,11.62842 26,26c0,7.4375 -6.60869,19.23426 -13.32227,28.93164c-6.11085,8.82679 -11.62906,15.28312 -12.67773,16.50195c-1.04867,-1.21884 -6.56688,-7.67517 -12.67773,-16.50195c-6.71357,-9.69738 -13.32227,-21.49414 -13.32227,-28.93164c0,-14.37158 11.62841,-26 26,-26zM50,19c-11.59221,0 -21,9.40779 -21,21c0,11.59221 9.40779,21 21,21c11.41933,0 20.70019,-9.13383 20.97461,-20.48828c0.00639,-0.27608 -0.2122,-0.50509 -0.48828,-0.51156c-0.27608,-0.00647 -0.50516,0.21205 -0.51172,0.48813c-0.26158,10.82355 -9.08794,19.51172 -19.97461,19.51172c-11.05179,0 -20,-8.94821 -20,-20c0,-11.05179 8.94821,-20 20,-20c3.3511,0 6.49843,0.83229 9.26758,2.29102c0.15879,0.0909 0.35455,0.08782 0.5104,-0.00803c0.15585,-0.09585 0.24691,-0.26917 0.23742,-0.45189c-0.00949,-0.18272 -0.11802,-0.34567 -0.28297,-0.42485c-2.90685,-1.53127 -6.21552,-2.40625 -9.73242,-2.40625zM62.10742,22.99609c-0.21281,0.00993 -0.39596,0.15359 -0.45628,0.35791c-0.06033,0.20432 0.01542,0.42442 0.1887,0.54834c1.50072,1.11042 2.84173,2.42404 3.98047,3.90234c0.1047,0.15296 0.28541,0.23546 0.46957,0.21436c0.18415,-0.0211 0.34153,-0.14234 0.40891,-0.31502c0.06738,-0.17268 0.03372,-0.36846 -0.08747,-0.50872c-1.19526,-1.55169 -2.6005,-2.93208 -4.17578,-4.09766c-0.09395,-0.07154 -0.21019,-0.10751 -0.32812,-0.10156zM50,24c-8.83063,0 -16,7.16937 -16,16c0,8.83063 7.16937,16 16,16c8.83063,0 16,-7.16937 16,-16c0,-8.83063 -7.16937,-16 -16,-16zM50,25c8.29019,0 15,6.70981 15,15c0,8.29019 -6.70981,15 -15,15c-8.29019,0 -15,-6.70981 -15,-15c0,-8.29019 6.70981,-15 15,-15zM68.14844,29.99414c-0.17655,-0.00062 -0.34034,0.09191 -0.43094,0.24344c-0.0906,0.15153 -0.09458,0.33961 -0.01046,0.49484c0.49008,0.93526 0.91075,1.91194 1.25,2.92578c0.04927,0.17826 0.19291,0.31476 0.37344,0.35491c0.18053,0.04014 0.36848,-0.02264 0.48865,-0.16322c0.12017,-0.14058 0.15293,-0.33601 0.08518,-0.50809c-0.35675,-1.06616 -0.79663,-2.09348 -1.31055,-3.07422c-0.08522,-0.16762 -0.25727,-0.27327 -0.44531,-0.27344z"></path></g></g></svg>