<svg xmlns="http://www.w3.org/2000/svg" xmlns:v="https://vecta.io/nano" width="352.65718283851095" height="283.5615007047569" fill="none" viewBox="0 0 393.0 316.0"><path fill-rule="evenodd" d="M188.366 1.184C110.095 5.783 51.78 74.96 60.539 152.821c8.439 75.024 76.535 128.965 151.663 120.137 74.576-8.763 128.031-76.213 119.594-150.906C323.681 50.22 260.465-3.053 188.366 1.184zm19.401 4.513c76.156 6.685 130.8 76.396 119.147 152-2.455 15.933-8.452 32.958-16.209 46.02l-1.272 2.142-.492-1.167-17.589-43.095c.051-.298.447-2.248.879-4.334 4.421-21.333 1.655-43.119-8.003-63.045l-1.833-3.781 1.821-1.852c1.929-1.963 4.475-4.943 4.475-5.237 0-.097-.435.117-.967.476-1.545 1.043-6.239 3.017-7.174 3.017-.145 0-1.281-1.536-2.524-3.413-16.459-24.862-42.276-40.451-72.195-43.593-2.495-.262-4.395-.579-5.222-.87-6.437-2.27-13.934-1.901-20.041.988-1.522.719-2.844 1.139-5.092 1.613-3 .634-7.88 1.945-10.403 2.795l-1.301.437.976-.876c.63-.567.822-.839.541-.77-16.538 4.067-27.235 10.094-32.177 18.128-.694 1.128-1.99 2.581-4.49 5.032-27.231 26.699-37.21 64.563-26.302 99.794l.424 1.366-10.409 17.919-10.574 18.096c-.301.325-4.438-7.523-6.718-12.746-24.682-56.529-7.468-122.094 41.768-159.085 26.094-19.605 58.379-28.819 90.956-25.959zm-6.833 10.235c0 .307.189.47.654.563.983.196 1.065.691.849 5.143-.29 6.012-.359 6.264-1.706 6.264-.286 0-.447.141-.447.389 0 .345 11.079 1.188 11.381.866.375-.4.321-3.855-.061-3.855-.308 0-.47.19-.565.664-.617 3.088-5.776 2.824-5.77-.295.006-2.509.213-3.174.948-3.037.869.162 1.592.823 1.765 1.612.093.422.271.623.553.623.382 0 .416-.175.419-2.113.002-1.162.062-2.332.134-2.6.169-.632-.69-.702-.889-.072-.315.992-.985 1.535-1.896 1.535h-.883l.139-1.788c.077-.983.14-2.07.141-2.415l.001-.627 1.639.124c1.937.146 2.618.521 3.079 1.694.61 1.555 1.132 1.161 1.132-.854v-1.7l-4.712-.146c-2.593-.081-4.981-.205-5.309-.277-.494-.107-.596-.055-.596.302zm-14.464-.016c-2.035.077-2.221.12-2.221.51 0 .308.148.426.537.426 1.008 0 1.157.601 1.365 5.525.222 5.235.18 5.549-.779 5.824-1.241.356-.92.988.448.883.626-.048 2.454-.136 4.063-.196 6.127-.228 8.569-2.565 7.789-7.452-.736-4.607-3.207-5.824-11.202-5.52zm5.905 1.34c2.584 1.503 2.753 9.104.228 10.301-1.297.616-2.432.445-2.896-.437-.362-.688-.737-9.843-.419-10.227.324-.39 2.164-.173 3.087.363zm-18.561.514c-.223.178-.804 2.341-1.666 6.209-1.32 5.919-1.661 6.913-2.439 7.117-.407.106-.562.592-.249.777.124.072 2.271-.264 4.544-.711.346-.068-.359-.659-.786-.659-.793 0-1.107-.375-1.082-1.29.052-1.853.196-1.948 3.775-2.49 1.596-.242 2.76 2.739 1.193 3.053-.466.093-.655.255-.655.562 0 .356.104.411.595.31.328-.067 1.842-.346 3.364-.621 2.891-.522 3.535-.95 1.924-1.28-.968-.198-.76.075-4.47-5.863-3.415-5.465-3.491-5.561-4.048-5.114zm60.706 1.811c-9.338 3.349-7.225 16.446 2.655 16.447 2.248 0 2.329.017 2.329.472 0 .47.513 1.153.866 1.153.103 0 .379-.512.614-1.137l.991-2.626c.673-1.78.662-1.577.093-1.726-.364-.095-.664.097-1.327.85-4.27 4.852-9.716.45-7.626-6.164 2.231-7.062 9.698-8.13 10.233-1.463.205 2.552.749 2.282 1.88-.933.884-2.515.589-3.535-.632-2.185-.388.428-.403.422-1.55-.662-2.208-2.089-5.903-2.967-8.526-2.026zm-79.632.159c-3.189.814-8.35 2.855-8.292 3.281.05.366.202.418 1.073.363 1.334-.083 1.278-.181 3.525 6.221 2.211 6.298 2.25 6.869.513 7.448-.141.047-.172.275-.078.571.113.356.257.451.516.34.198-.085 2.213-.805 4.477-1.602 7.042-2.475 8.628-3.836 8.935-7.661.478-5.952-4.866-10.44-10.669-8.961zm2.721 1.668c2.721 1.388 5.147 8.791 3.673 11.209-1.172 1.923-3.7 2.28-4.584.648-.788-1.455-4.052-11.317-3.832-11.581.643-.776 3.444-.939 4.743-.276zm17.392 2.306l1.201 1.987-1.664.302c-1.987.361-1.911.477-1.354-2.094l.448-2.214c0-.231.089-.1 1.369 2.019zM72.223 28.061c-2.232 1.89-5.741 4.247-11.376 7.643-14.331 8.636-17.723 12.007-21.439 21.31-1.581 3.957-2.046 9.881-1.142 14.567l.379 1.966-.531 1.826c-.672 2.314-1.981 5.749-2.509 6.582l-.405.64-.106-.531c-.059-.293-.268-1.946-.464-3.674-.593-5.217-1.367-8.267-3.682-14.518-2.441-6.592-2.503-7.205-1.207-11.93.471-1.714.832-3.14.803-3.169-.235-.235-6.53 9.986-8.363 13.582-6.157 12.075-4.877 22.327 4.994 40.003l.498.892-.585 1.925c-.951 3.128-2.506 10.075-2.539 11.335-.001.069-.392-1.03-.867-2.442-1.723-5.121-4.274-9.714-9.661-17.396-3.564-5.082-4.994-7.524-5.947-10.153l-.234-.647-.617 1.461c-.689 1.634-2.85 9.941-3.282 12.617-1.919 11.886 3.05 23.754 15.785 37.703l2.374 2.601.136 4.008c.122 3.588.33 6.165.707 8.776.116.802.033.713-1.115-1.192-2.722-4.514-5.061-7.328-11.798-14.193-5.002-5.097-6.226-6.523-7.359-8.579-.355-.644-.648-1.095-.65-1.002s-.341 1.507-.754 3.142c-1.795 7.113-1.457 15.908.844 21.989 3.11 8.218 11.788 18.112 22.412 25.553.327.23.561.889.909 2.572.376 1.812 1.859 6.853 2.537 8.618.072.189-.81-.494-1.961-1.519-3.803-3.386-6.844-5.478-13.806-9.5-5.276-3.048-7.118-4.281-8.811-5.901-1.454-1.39-1.418-1.398-1.692.38-.347 2.245.992 10.419 2.39 14.601 3.637 10.878 12.95 19.158 29.522 26.248l2.883 1.234 1.281 2.763c.704 1.52 1.396 2.901 1.536 3.07.499.602.045.445-2.949-1.02-6.266-3.066-25.46-10.024-26.042-9.441s4.635 12.327 7.133 16.048c6.135 9.139 16.616 14.583 33.415 17.356l3.948.653c.535.09 1.037.533 2.272 2.005a96.6 96.6 0 0 0 3.431 3.818c1.439 1.504 1.726 1.901 1.303 1.802-.812-.191-29.426-5.869-33.859-6.719l-3.848-.738.679 1.213c11.755 20.988 36.266 32.064 63.149 28.537 2.201-.289 2.405-.285 2.807.061 2.058 1.772 4.009 3.565 3.946 3.628-.042.041-1.191-.19-2.553-.514-2.274-.541-2.822-.588-6.702-.572-4.703.019-5.154.098-11.929 2.094-4.373 1.289-6.025 1.612-10.554 2.065l-3.74.375 1.465 1.424c1.627 1.582 4.984 4.089 8.927 6.668 13.72 8.973 27.852 9.413 48.715 1.515l1.357-.514 3.735 1.891 5.444 2.843 1.708.951-5.392.118c-5.526.122-8.425.397-14.492 1.373-6.454 1.039-17.443 3.427-17.443 3.79 0 .537 6.074 4.552 11.381 7.523 16.11 9.018 31.266 7.674 49.29-4.372 3.571-2.386 3.966-2.53 7.368-2.679 8.232-.362 16.843 2.099 17.426 4.98.054.266.155.907.226 1.424.427 3.148 2.94 4.624 5.014 2.945 1.983-1.605 2.943-4.898 2.184-7.492-.187-.638-.399-1.599-.472-2.136-.665-4.907-6.625-6.907-21.128-7.089l-7.909-.099-.617-.577c-.978-.916-1.947-3.087-3.602-8.072-2.15-6.475-6.179-14.422-9.759-19.251-4.97-6.703-10.951-9.589-19.251-9.289-2.937.106-3.283.184-2.909.656.666.841 2.725 8.628 3.74 14.144 1.331 7.225 2.531 10.711 4.962 14.409l.966 1.479c.806 1.268-8.191-4.958-9.423-6.521l-.573-.727.013-5.62c.044-20.164-6.378-30.756-19.821-32.691l-1.019-.147.727.728c1.474 1.473 1.77 4.384.986 9.697-1.059 7.181-.356 13.868 2.048 19.478.944 2.204 1.024 2.115-1.179 1.311-3.746-1.367-6.206-3.107-7.49-5.298l-.53-.905-.089-8.973c-.095-9.708-.22-11.204-1.437-17.256-2.564-12.746-9.518-22.04-19.502-26.065l-1.693-.682-.143-1.444c-.079-.795-.333-2.371-.565-3.503l-.861-4.308c-1.227-6.3-4.36-12.639-8.311-16.819-1.383-1.464-1.429-1.492-1.297-.799.455 2.393-.721 6.069-3.995 12.482-4.344 8.512-5.534 12.791-5.545 19.953-.004 2.77.093 4.755.269 5.503.357 1.518.208 1.621-.456.315-.293-.578-1.48-2.4-2.637-4.049-4.942-7.044-4.933-7.616.281-17.297 5.081-9.434 7.264-14.672 8.578-20.589 2.021-9.1.312-18.902-4.371-25.066l-1.212-1.595-.453 1.703c-.617 2.319-1.595 4.154-3.946 7.403-7.516 10.391-9.703 15.845-10.528 26.256l-.266 3.353-1.358-4.654c-2.485-8.518-2.689-10.498-1.353-13.132.886-1.748 1.201-2.131 7.411-8.996 10.902-12.053 14.742-19.588 15.058-29.546.175-5.529-.327-8.611-2.029-12.457l-.527-1.193-.531 1.046c-1.289 2.541-2.757 4.122-7.416 7.99-8.95 7.428-12.413 12.816-15.85 24.656-.107.369-.236-.246-.408-1.951-1.496-14.828-1.16-15.781 8.086-22.87 14.258-10.933 20.363-18.6 22.119-27.777.483-2.522.413-9.376-.121-11.967-.357-1.729-.376-2.08-.123-2.222 2.118-1.186 7.782-6.321 9.863-8.942 4.854-6.117 7.251-12.617 6.859-18.603-.171-2.603-.117-2.529-1.214-1.661-1.529 1.211-4.002 2.337-7.642 3.48-7.083 2.223-10.013 3.275-12.299 4.414-5.411 2.698-9.894 6.378-14.018 11.507l-.694.863.734-2.461c1.365-4.578 4.016-8.095 6.878-9.126 11.529-4.154 22.094-16.369 25.513-29.498 1.199-4.606 1.931-12.955 1.376-15.699l-.178-.879-1.625 1.375zm245.876 1.85c-.719 18.706 10.377 36.496 26.659 42.744 3.657 1.403 5.687 4.321 7.75 11.138.091.3-.56-.33-1.514-1.468-3.137-3.739-7.32-7.235-11.274-9.423-3.286-1.819-5.347-2.597-13.867-5.238-3.638-1.127-6.24-2.291-7.69-3.439-1.204-.954-1.246-.91-1.427 1.492-.447 5.939 2.131 12.823 7.059 18.849 2.275 2.781 7.569 7.559 9.692 8.747.308.173.303.335-.055 1.681-.579 2.175-.718 9.657-.228 12.272 1.743 9.302 7.911 17.068 22.329 28.112 8.642 6.621 9.27 8.107 8.249 19.527-.514 5.743-.591 6.093-.966 4.412-2.076-9.298-6.938-16.675-15.946-24.189-3.925-3.274-5.825-5.281-6.829-7.213l-.754-1.45-.725 1.566c-2.476 5.344-2.662 14.254-.436 20.89 2.157 6.432 6.443 12.822 14.516 21.644 8.897 9.722 8.835 9.381 4.35 23.94l-.626 2.031-.139-2.789c-.499-10.011-2.982-16.601-9.721-25.797-3.314-4.524-4.361-6.53-5.043-9.672l-.133-.61-.875 1.044c-3.478 4.146-5.614 10.957-5.63 17.945-.018 8.139 2.495 15.495 10.032 29.36 4.478 8.239 4.476 9.488-.016 15.755-.957 1.335-2.194 3.188-2.748 4.117s-.956 1.445-.892 1.147c.52-2.433.651-3.797.645-6.717-.005-2.31-.119-3.867-.366-4.984l-.697-3.25c-.644-3.107-1.7-5.773-4.369-11.03-3.574-7.039-4.617-10.203-4.258-12.914l.115-.867-1.32 1.409c-3 3.201-5.624 7.711-7.152 12.288-.829 2.484-2.605 10.615-2.605 11.924 0 1.73-.147 1.929-1.949 2.656-8.263 3.331-15.03 11.015-18.074 20.526-2.092 6.539-2.77 12.038-2.838 23.028-.061 9.87.068 9.202-2.228 11.469-1.756 1.734-2.756 2.324-5.917 3.49-2.16.796-2.081.879-1.184-1.248 2.478-5.875 3.164-12.419 2.069-19.743-.789-5.281-.436-8.284 1.13-9.623.813-.695.775-.702-1.538-.263-5.129.973-9.413 3.288-11.979 6.472-4.454 5.529-7.662 18.939-6.675 27.906.405 3.684.047 4.412-3.423 6.947-1.819 1.329-6.4 4.279-6.644 4.279-.065 0 .32-.641.856-1.424 2.402-3.509 3.597-6.891 5.091-14.413 1.175-5.916 2.246-10.221 3.246-13.047.774-2.186 1.103-1.995-3.428-1.987-7.1.013-11.386 1.801-15.999 6.674-4.186 4.422-9.158 13.48-11.88 21.642-1.636 4.906-2.335 6.565-3.333 7.918l-.68.921h-6.553c-15.528 0-22.094 2.12-22.821 7.366-.074.537-.284 1.506-.465 2.153-.772 2.748.454 6.216 2.652 7.504 2.255 1.322 4.168-.141 4.651-3.558.54-3.823 6.224-5.957 15.93-5.979 5.057-.011 5.252.042 8.641 2.357 17.491 11.951 32.71 13.61 48.456 5.284 4.938-2.611 12.567-7.574 12.567-8.175 0-.179-3.266-1.004-7.909-1.998-10.195-2.184-18.334-3.216-25.441-3.227l-4.028-.006 2.167-1.189c1.192-.654 3.652-1.943 5.467-2.865l3.3-1.676 1.684.625c18.629 6.912 31.512 7.269 43.51 1.205 4.188-2.117 11.678-7.287 14.039-9.691l1.262-1.283-2.02-.152c-5.314-.398-7.919-.92-15.078-3.024-5.656-1.662-10.897-1.893-15.962-.701-1.302.306-2.403.521-2.446.478-.232-.231 4.415-4.033 4.814-3.939 3.029.719 14.338 1.058 19.068.573 19.649-2.015 35.943-11.952 45.388-27.681.902-1.502 1.19-2.151.977-2.199-.308-.07-12.058 2.192-28.481 5.484l-9.295 1.844c-.051 0 .777-.902 1.84-2.005a86.17 86.17 0 0 0 3.422-3.788c1.142-1.369 1.645-1.809 2.161-1.894l3.49-.552c17.061-2.67 28.094-8.444 34.193-17.894 1.837-2.846 5.741-11.222 6.555-14.062l.47-1.56c.438-1.162-23.573 7.733-28.215 10.454-.499.292-.964.531-1.033.531s.566-1.441 1.412-3.203l1.538-3.203 1.533-.622c22.57-9.164 33.029-21.759 33.149-39.92.023-3.455.055-3.415-1.524-1.897-1.524 1.464-4.106 3.186-9.074 6.047-7.187 4.139-10.508 6.451-13.851 9.642-1.064 1.015-1.876 1.686-1.805 1.492.806-2.216 2.198-6.945 2.581-8.77.446-2.125.54-2.345 1.231-2.873 16.779-12.81 23.482-22.673 24.022-35.343.214-5.019-.528-11.113-1.791-14.719-.065-.185-.396.178-.851.934-1.179 1.958-1.868 2.744-7.112 8.124-6.658 6.829-9.208 9.885-11.64 13.945-1.504 2.511-1.524 2.538-1.4 1.894.332-1.71.756-7.359.756-10.057 0-1.858.088-3.19.217-3.269.487-.301 4.988-5.377 6.976-7.867 9.748-12.208 13.082-22.86 10.697-34.17-1.377-6.528-3.339-12.739-3.697-11.701-.986 2.859-2.22 5.008-5.811 10.117-5.344 7.602-8.112 12.564-9.795 17.56l-.857 2.541-.696-3.596c-.383-1.978-1.097-4.979-1.586-6.669l-.891-3.072.794-1.398c9.091-16.014 10.633-26.819 5.421-37.991-1.516-3.25-8.674-15.087-9.123-15.087-.038 0 .121.658.354 1.463 1.928 6.672 1.949 6.34-.854 14.078-2.42 6.681-3.115 9.57-3.718 15.445l-.29 2.806c-.131 1.172-3.392-7.387-3.392-8.903 0-.422.145-1.733.323-2.914.664-4.402.341-9.166-.851-12.573-3.36-9.602-7.102-13.47-21.358-22.074-6.201-3.743-9.397-5.883-11.831-7.925l-1.755-1.472-.126 3.276zm-68.838.413c-5.97 3.095-4.566 11.229 2.257 13.076 5.385 1.458 10.066-3.473 8.276-8.72-1.338-3.922-6.918-6.23-10.533-4.356zm6.608 1.29c2.548 1.725 1.701 6.529-1.706 9.669-2.708 2.496-6.599.137-5.829-3.534 1.03-4.908 4.806-7.982 7.535-6.135zM72.158 34.999c-.52 15.779-11.076 31.18-24.854 36.263-1.84.679-5.217 3.898-6.227 5.936-.546 1.102-3.957 11.176-3.957 11.686 0 .094.423-.4.94-1.099 6.032-8.152 12.427-12.315 24.087-15.681 5.823-1.681 7.644-2.381 9.614-3.692l1.596-1.063-.156 1.674c-1.141 12.284-13.837 25.45-27.63 28.652-13.786 3.201-17.112 7.516-17.888 23.204-.142 2.877-.132 2.978.462 4.499l.607 1.555.68-1.899c3.237-9.042 7.782-14.182 17.588-19.892 5.635-3.281 7.583-4.759 8.707-6.605l.431-.709.333 1.169c3.468 12.169-4.459 24.705-23.938 37.858-5.142 3.472-5.513 4.271-5.5 11.849.008 4.55 1.066 16.965 1.481 17.38.034.034.177-.694.318-1.617 1.576-10.272 5.373-16.43 15.237-24.715 3.74-3.142 5.064-4.557 6.131-6.553l.71-1.33.664 1.596c4.419 10.612.7 21.619-12.036 35.623-7.923 8.712-8.288 9.271-8.288 12.687 0 3.018 3.119 14.172 5.385 19.259l.435.975.015-1.32c.15-12.903 3.288-22.779 9.841-30.966 2.337-2.92 3.473-4.886 3.893-6.735l.285-1.254.816 1.069c7.146 9.358 5.35 21.897-6.206 43.335-4.22 7.827-3.911 11.057 1.741 18.216l2.593 3.332c.496.655 1.386 1.728 1.977 2.383l1.075 1.192-.532-1.84c-2.211-7.643-1.446-15.08 2.305-22.429l3.085-5.958c2.14-4.098 2.761-6.015 2.761-8.527 0-2.091.071-2.059 2.069.943 7.447 11.185 8.611 29.789 2.688 42.943-3.308 7.345-2.919 9.428 2.735 14.643 1.601 1.477 9.001 7.432 9.12 7.339.019-.016-.396-.906-.924-1.978-3.596-7.311-4.026-13.384-1.703-24.052 1.667-7.659 1.515-9.999-.886-13.641l-.422-.64.735.423c13.029 7.502 17.187 16.569 17.785 38.776.368 13.699 1.106 15.258 8.719 18.409a72.39 72.39 0 0 1 4.017 1.823c1.956.985 1.983.973 1.357-.615-2.981-7.561-4.016-16.245-2.858-23.973.5-3.338.454-5.031-.182-6.703-.347-.913-.276-.946 1.139-.518 9.115 2.76 13.837 12.475 13.578 27.937-.112 6.705-.124 6.525.537 7.876 1.141 2.332 4.324 4.801 11.473 8.899 3.845 2.205 10.448 5.582 9.896 5.062-.179-.169-1.118-.964-2.088-1.768-6.554-5.43-9.787-11.977-11.778-23.85-1.035-6.173-1.394-7.546-2.214-8.48l-.618-.704 1.46-.157c7.535-.806 13.312 2.161 17.609 9.044 2.463 3.944 7.61 15.068 9.106 19.679 1.459 4.496 2.473 6.77 3.393 7.612l.623.569 5.201-.136c15.341-.401 21.794.96 24.016 5.065 1.688 3.118-.534 9.279-3.007 8.339-.671-.256-1.611-2.144-1.615-3.247-.014-3.61-8.141-6.311-18.961-6.301-4.568.004-4.943.117-8.776 2.664-16.026 10.646-29.647 12.179-43.878 4.937-2.384-1.213-9.085-5.128-9.798-5.724-.026-.022 1.437-.043 3.25-.046 3.733-.008 5.532-.278 10.7-1.606 9.691-2.489 16.391-2.996 23.258-1.761 1.251.226 2.303.387 2.337.36s-.844-.564-1.95-1.192-3.767-2.23-5.912-3.559c-4.789-2.968-6.88-4.181-9.012-5.227l-1.644-.807-2.256.88c-20.713 8.077-34.25 7.004-49.542-3.926l-3.082-2.203 1.24-.162c2.54-.334 3.777-.639 7.768-1.917 7.608-2.437 11.272-3.025 16.091-2.582 3.443.317 5.563.894 10.751 2.925.238.093-.932-1.216-2.6-2.908-3.494-3.544-7.076-6.194-8.1-5.991-6.438 1.276-18.599.886-26.31-.844-13.718-3.076-27.465-12.554-33.824-23.32l-.369-.624 1.056.656c2.174 1.352 5.858 2.233 12.184 2.916 9.485 1.023 12.838 1.521 16.845 2.505 2.961.727 6.966 2.059 9.106 3.029l1.444.64c.018 0-1.635-1.682-3.674-3.737-3.598-3.63-7.22-7.638-9.203-10.185-.654-.84-1.124-1.246-1.443-1.246-2.174 0-11.716-2.021-15.922-3.373-12.136-3.899-17.9-9.01-23.164-20.541-2.14-4.688-2.158-4.764-.924-3.947 1.346.89 4.216 1.955 9.646 3.579 9.531 2.85 13.708 4.569 18.001 7.409.69.456 1.177.706 1.083.556s-.78-1.168-1.525-2.262c-1.728-2.538-4.118-6.708-5.02-8.757l-.701-1.591-2.096-.854c-6.177-2.519-13.679-6.744-17.697-9.968-8.337-6.688-11.271-12.58-13.409-26.93-.058-.39.181-.248 1.251.744 1.606 1.487 3.487 2.722 9.016 5.919 8.458 4.889 12.71 8.23 16.54 12.996.718.894 1.231 1.43 1.139 1.192-2.037-5.28-5.761-18.289-5.761-20.123 0-.044-1.049-.865-2.33-1.824-9.732-7.282-16.646-15.057-19.309-21.715-1.843-4.609-2.255-8.286-1.755-15.651.325-4.793.252-4.663 1.513-2.694 1.105 1.724 2.231 2.965 8.775 9.677 5.731 5.879 8.979 10.424 11.303 15.818.511 1.186.513 1.188.4.325-.437-3.324-.805-9.448-.916-15.226l-.13-6.775-2.156-2.326c-14.799-15.963-17.79-26.53-12.584-44.459l.343-1.181.472 1.304c.746 2.058 1.854 3.908 5.421 9.048 6.079 8.757 8.062 12.567 9.755 18.734.284 1.033.524 1.634.534 1.336.158-4.849 1.382-11.387 3.163-16.896l.791-2.446-1.95-3.926c-7.604-15.305-9.053-24.734-5.113-33.265.71-1.539 5.96-10.692 6.069-10.581.027.028-.051.587-.173 1.242-.507 2.734.161 5.812 2.539 11.694 2.404 5.945 3.42 10.339 3.7 15.992l.153 3.081 1.176-2.545c3.586-7.763 4.532-10.897 4.043-13.404-2.446-12.547 2.696-20.397 20.068-30.639 4.685-2.762 8.209-5.128 10.618-7.132 1.013-.842 1.88-1.532 1.927-1.532s.028 1.731-.042 3.846zm250.037-2.037c1.743 1.481 6.543 4.686 9.942 6.638 15.681 9.005 20.797 15.382 20.776 25.897-.005 2.568-.113 4.155-.355 5.238-.299 1.338-.308 1.7-.059 2.6.626 2.263 2.832 7.803 4.515 11.339l.981 2.058.017-2.789c.037-5.648 1.193-10.763 3.893-17.216 2.014-4.813 2.82-8.948 2.236-11.468-.118-.507-.186-.921-.151-.921.059 0 2.893 4.773 4.826 8.13 5.543 9.623 4.44 19.42-4.089 36.312l-1.707 3.381.652 1.928c1.57 4.644 2.923 11.32 3.17 15.648l.143 2.512.49-1.832c1.722-6.441 3.699-10.208 10.452-19.917 2.966-4.263 4.342-6.609 4.827-8.23.408-1.361.494-1.177 1.675 3.617 1.512 6.138 1.619 6.841 1.613 10.564-.017 9.669-4.656 18.872-15.455 30.661l-1.886 2.058-.118 7.151c-.1 6.034-.516 12.953-.907 15.059l-.1.542.246-.542c3.258-7.166 5.601-10.36 13.509-18.425 4.835-4.931 6.806-7.226 7.483-8.714.463-1.017.559-.7.819 2.708.67 8.77.023 13.422-2.595 18.64-3.118 6.217-9.922 13.457-18.848 20.058l-1.858 1.374-.471 2.418c-.648 3.329-1.985 8.045-3.837 13.536-.86 2.547-1.495 4.549-1.412 4.449s.703-.872 1.377-1.715c3.695-4.613 7.627-7.634 17.168-13.191 5.336-3.108 6.378-3.81 8.207-5.531 1.234-1.161 1.269-1.178 1.143-.547-.072.357-.282 1.576-.467 2.708-1.648 10.058-3.715 14.944-8.556 20.222-4.506 4.913-13.386 10.447-22.813 14.219l-1.252.5-1.479 2.952c-1.655 3.304-2.69 5.059-4.706 7.983l-1.377 1.996 1.469-.95c4.32-2.795 9.03-4.7 18.708-7.567 4.801-1.423 7.033-2.258 8.675-3.247l1.212-.73-.648 1.542c-2.755 6.551-5.374 11.024-8.305 14.187-5.742 6.196-16.221 10.571-29.968 12.512l-2.672.378-1.65 1.967c-2.908 3.466-4.828 5.564-8.598 9.397l-3.685 3.747 1.431-.649c5.705-2.587 11.756-3.951 23.153-5.223 10.169-1.134 13.015-1.776 15.396-3.471.865-.616.813-.448-.425 1.387-8.779 13.01-23.813 21.62-40.92 23.436-4.972.527-14.346.301-18.308-.442-1.207-.226-4.164 1.898-8.072 5.799-1.788 1.785-3.055 3.171-2.817 3.08l2.384-.915c7.841-3.022 13.804-2.877 24.527.595 3.854 1.248 5.152 1.568 7.717 1.9l1.259.162-3.101 2.195c-15.429 10.918-27.986 11.987-48.877 4.161l-2.874-1.076-1.227.562c-1.737.795-4.552 2.415-9.06 5.214l-6.115 3.689c-1.218.697-2.193 1.285-2.167 1.307s1.169-.158 2.54-.401c6.488-1.148 12.984-.689 22.21 1.567 6.81 1.666 7.854 1.83 11.645 1.826l3.194-.003-1.352.856c-19.959 12.638-33.485 12.583-52.639-.215-4.306-2.877-8.078-3.266-17.186-1.774-6.648 1.089-9.883 2.921-10.294 5.83-.579 4.097-3.65 4.043-4.876-.085-1.459-4.911 1.259-8.222 7.838-9.55 3.635-.733 15.732-1.115 20.347-.643 2.245.23 2.961-.866 5.395-8.26 1.315-3.995 2.952-7.708 6.956-15.776 4.93-9.935 11.717-14.213 20.296-12.795l.809.133-.533.633c-.731.869-1.331 2.946-1.861 6.437-1.993 13.148-5.34 20.309-12.137 25.969l-2.146 1.799c-1.342 1.146 10.605-5.316 14.64-7.919 7.084-4.57 7.341-5.023 7.369-12.998.055-15.933 3.234-24.126 10.808-27.855 1.419-.699 4.021-1.556 4.017-1.323-.001.078-.152.63-.334 1.226-.465 1.519-.429 3.789.124 7.692.97 6.86-.109 14.882-3.041 22.597-.237.621-.43 1.2-.43 1.286s1.048-.353 2.329-.975a81.7 81.7 0 0 1 4.154-1.867c6.733-2.712 7.659-4.716 8.024-17.357.246-8.524.367-10.588.798-13.651 1.565-11.123 6.182-18.716 14.902-24.51 2.897-1.926 3.029-1.959 2.06-.523-2.011 2.979-2.105 5.964-.424 13.401 2.277 10.071 1.839 16.034-1.727 23.508-.92 1.928-.996 2.18-.55 1.842 10.778-8.19 13.729-11.539 13.497-15.316-.111-1.815-.149-1.926-2.626-7.668-5.593-12.971-3.724-32.446 4.124-42.957l1.051-1.407.136 2.167c.171 2.709.644 4.135 2.62 7.909l2.785 5.309c4.451 8.475 5.159 15.52 2.455 24.464-.21.694 1.216-.732 2.687-2.688.672-.893 2.036-2.648 3.029-3.9 5.064-6.376 5.522-10.074 2.064-16.683-5.844-11.171-7.165-13.991-8.689-18.551-3.582-10.722-2.782-20.358 2.192-26.407l.529-.644.262 1.263c.388 1.868 1.389 3.598 3.9 6.743 6.484 8.121 9.757 18.296 9.757 30.329 0 2.769.012 2.744 2.926-5.844 4.572-13.476 4.429-14.479-3.258-22.86-14.889-16.236-18.904-27.098-14.035-37.974.681-1.521.705-1.523 1.404-.109.922 1.868 2.247 3.278 6.379 6.79 7.935 6.742 10.926 10.714 13.21 17.541.781 2.335 1.809 6.714 1.842 7.848l.017.595.187-.542c.581-1.678 1.836-16.532 1.639-19.393-.353-5.127-.948-6.008-6.736-9.972-18.57-12.718-26.464-25.474-22.966-37.11l.344-1.145.957 1.253c1.31 1.716 2.946 2.916 8.018 5.884 9.956 5.825 14.679 11.12 17.801 19.96.731 2.07.703 2.06 1.317.463.564-1.464.625-3.295.262-7.761-1.038-12.774-4.637-16.901-17.36-19.903-14.379-3.393-26.746-16.192-28.027-29.005l-.149-1.496 1.05.765c2.197 1.602 3.648 2.176 10.476 4.148 11.038 3.189 17.696 7.466 23.406 15.037 1.446 1.917 1.512 1.807.568-.94a267.06 267.06 0 0 1-1.73-5.299c-1.665-5.285-4.198-8.349-8.222-9.944-14.085-5.582-24.423-21.381-24.423-37.324 0-3.006-.251-2.923 2.301-.753zm-193.682 4.192c-2.138 1.457-2.704 1.941-2.523 2.159.171.206.345.221.655.056 1.097-.587 1.414-.294 4.334 4.008 2.994 4.409 3.057 4.56 2.244 5.325-2.156 2.025 2.274-.185 5.508-2.747.376-.298-.475-.53-1.057-.289-.972.402-1.201.174-4.135-4.106-2.724-3.974-2.932-4.494-2.138-5.339.407-.434.418-.957.018-.948-.082.002-1.39.849-2.906 1.881zm136.667.284c-.084.136.052.466.303.733.749.797.579 1.164-2.366 5.115-3.051 4.093-3.481 4.487-4.389 4.016-1.484-.77-1.105.254.533 1.439l4.698 3.481c3.684 2.761 3.017 2.618 4.344.929 1.507-1.917 1.399-2.456-.297-1.485-1.415.809-2.941.464-4.401-.996-1.183-1.182-1.082-1.42 2.842-6.688 2.091-2.807 2.575-3.164 3.483-2.569.438.288.559.294.766.044.198-.238-.25-.667-2.277-2.174-2.789-2.074-3.017-2.204-3.239-1.845zM68.893 39.96c-.919 1.928-4.668 6.025-7.829 8.555-2.171 1.738-2.327 1.8-3.187 1.276-1.989-1.213-3.224.093-6.031 6.381-1.954 4.377-2.006 4.537-.99 3.028.404-.6 1.062-1.341 1.463-1.648s1.35-1.482 2.11-2.613c1.537-2.288 2.535-3.096 4.116-3.333.864-.13 1.282-.409 3.163-2.121 5.732-5.217 7.181-7.04 7.549-9.502.152-1.01.108-1.012-.364-.023zm253.968 0c.395 2.531 1.968 4.508 7.499 9.428 1.894 1.684 2.509 2.108 3.219 2.222 1.662.266 2.728 1.1 4.037 3.161.417.656 1.412 1.875 2.211 2.709s1.617 1.834 1.817 2.221c.821 1.593.461.52-.763-2.275-3.226-7.37-4.477-8.837-6.528-7.657l-.839.483-.939-.611c-2.813-1.833-7.415-6.512-9.042-9.194-.8-1.319-.802-1.32-.672-.487zm-126.911.423c8.786 1.486 19.532 7.492 30.846 17.241 9.859 8.494 17.816 12 25.055 11.041 2.039-.27 2.037-.281.162.776-7.535 4.244-15.134 4.453-19.938.548-1.401-1.138-1.485-1.176-1.781-.785-.451.595-.441.613.922 1.751 3.023 2.524 5.001 4.922 9.156 11.103 3.384 5.032 4.713 6.674 6.663 8.23 5.855 4.673 15.344 4.551 31.343-.403 2.614-.81 2.565-.855 1.053.98-9.204 11.167-23.603 18.84-35.268 18.792-6.929-.028-11.712-2.112-16.736-7.293-6.893-7.109-24.404-12.344-35.926-10.741-9.877 1.373-14.847 6.688-15.203 16.256l-.125 3.378-.892.544-3.491 2.13c-10.351 6.317-18.711 6.738-24.705 1.245-4.182-3.832-6.722-10.625-5.329-14.251.428-1.113.434-1.209.091-1.462-.549-.405-.671-.346-1.121.541-2.422 4.775-1.172 11.776 2.909 16.294 2.175 2.407-2.441-.723-5.508-3.736-8.232-8.085-13.711-21.228-13.429-32.219.1-3.916.169-4.133 1.079-3.367 1.792 1.508 2.629.561 5.262-5.953 5.369-13.279 12.882-19.994 25.468-22.76 2.215-.487 2.075-.633 1.301 1.36-2.334 6.011-.342 10.238 6.445 13.676 1.456.738 1.46.738 1.783-.348 4.925-16.557 16.01-24.919 29.914-22.568zm-75.054 2.569l-1.706 1.569 1.56 4.386c.859 2.412 1.52 4.427 1.47 4.477s-2.014-.837-4.366-1.97l-4.275-2.061-1.719 1.56c-1.706 1.548-2.021 2.301-.669 1.602.983-.509.839-.619 4.25 3.282 3.311 3.786 3.595 4.263 3.188 5.342-.426 1.126.06 1.172 1.204.112.57-.529 1.315-1.177 1.656-1.441.386-.299.573-.605.495-.81-.144-.375-.484-.431-.682-.112-.211.342-1.253.244-1.777-.167-.596-.468-5.051-5.536-4.953-5.634.04-.04 2.178.979 4.752 2.265 6.346 3.169 6.172 3.747 2.203-7.298-.421-1.169-.558-1.29 2.583 2.275 2.501 2.838 2.738 3.29 2.18 4.142-.935 1.427.116.963 2.564-1.132 2.558-2.188 3.118-3.167 1.323-2.312-1.055.503-1.224.375-4.643-3.515-3.336-3.795-3.543-4.164-2.859-5.089 1.041-1.409-.012-1.096-1.779.529zm92.812.453c16.146 2.872 30.393 9.662 44.643 21.277.288.234.261.322-.212.698-1.296 1.027-1.482.984-3.816-.891-10.158-8.163-22.744-14.374-35.513-17.524-3.844-.949-3.606-.844-8.559-3.756-1.123-.661-1.471-.681 3.457.196zm-41.773 2.77c-1.498 1.508-1.679 1.62-3.57 2.215-1.096.345-3.355 1.136-5.021 1.757-1.852.691-3.082 1.046-3.165.912-.136-.221.06-1.528.324-2.153.2-.474 5.166-2.25 11.07-3.96 2.022-.585 2.055-.475.362 1.229zm105.524.644c-.202.244-.187.369.07.583.828.687.442 1.305-3.085 4.944-3.608 3.723-4.1 4.033-5.044 3.178-.299-.271-.407-.279-.602-.045-.184.222.7 1.207 3.961 4.416l4.198 4.13 1.362-1.374c1.472-1.485 1.579-2.207.224-1.506-1.43.739-2.863.346-4.223-1.16-1.378-1.524-1.286-1.733 2.399-5.474 3.785-3.842 3.788-3.844 4.652-3.206.478.353.709.414.889.233s-.377-.864-2.149-2.636c-1.989-1.989-2.437-2.341-2.652-2.083zm-86.42 6.017c-13.525 1.04-22.654 12.282-24.887 30.646-.711 5.848-.339 6.755.622 1.517 2.157-11.757 4.685-17.859 9.345-22.55 8.276-8.333 20.812-9.398 40.741-3.463.865.258-2.448-1.244-4.997-2.265-5.034-2.017-10.959-3.532-14.829-3.791l-2.817-.194c-.537-.038-1.966.007-3.178.1zm97.321 5.195c-.077.125-.027.362.112.529.677.816.205 1.45-2.706 3.632-5.298 3.972-5.668 4.157-6.621 3.294-.301-.272-.5-.322-.659-.163s.545 1.269 2.334 3.678l3.321 4.572c.922 1.365.717 1.362 2.472.033 1.384-1.048 1.751-1.698.863-1.531-1.993.374-2.399.31-3.327-.529-2.241-2.024-2.091-2.869.893-5.035l1.226-.89.36.549a2.13 2.13 0 0 1-.062 2.46c-.359.485-.4.669-.188.844.434.361 4.56-2.791 4.17-3.185-.22-.222-.396-.235-.734-.054-.784.419-1.553.274-2.254-.427l-.664-.664 1.915-1.394c2.317-1.689 2.086-1.684 3.135-.061.964 1.491 1.079 2.317.464 3.325-.862 1.414-.172 1.53 1.517.253l1.227-.927-1.741-2.263c-.958-1.245-2.379-3.165-3.158-4.268-1.413-2-1.631-2.205-1.895-1.778zM103.691 60.01c-.44.44-.363.636 2.461 6.281 2.554 5.105 2.721 5.517 2.654 6.534-.102 1.549.198 1.48 1.841-.423 1.54-1.783 1.745-2.8.359-1.775-.787.581-1.148.428-1.94-.821l-.643-1.014.914-1.069 1.465-1.719.55-.65 1.21.535c1.461.646 1.626.872 1.159 1.585-.346.527-.302 1.28.065 1.129.589-.241 4.333-4.928 4.095-5.126-.181-.15-.433-.125-.805.08-.297.165-.699.303-.891.307-.268.006-10.054-3.276-11.899-3.99a.61.61 0 0 0-.595.136zm239.972 3.445c.215.367.53.782.699.921s.034-.16-.3-.666c-.701-1.064-.978-1.24-.399-.255zm-296.005.905c-.475.644-.616.932-.325.663.457-.423 1.399-1.801 1.23-1.801-.037 0-.444.512-.905 1.138zm60.683-.043l1.991.72-.634.772-1.159 1.402-.525.629-1.119-2.23c-.616-1.227-.99-2.181-.832-2.121l2.278.828zm53.875.834c-9.901 6.631-13.691 19.326-10.053 33.676 1.997 7.876 6.366 15.503 9.94 17.351 1.201.621 1.156.383-.35-1.872-11.879-17.793-11.386-36.552 1.292-49.113 1.654-1.639 1.563-1.643-.829-.042zm47.602-.414c-16.977 1.692-30.459 16.216-32.587 35.105-.134 1.193-.073 1.059.636-1.409 2.367-8.23 7.657-17.167 13.33-22.518 9.724-9.173 22.097-11.83 37.341-8.017 2.849.712 2.799.578-.188-.511-6.156-2.243-12.919-3.21-18.532-2.65zm53.494 4.616c5.14 5.081 8.675 9.346 12.427 14.996l2.159 3.25-1.263.283c-.786.176-1.289.203-1.332.072-.114-.341-3.018-4.527-4.606-6.639-2.755-3.665-5.06-6.284-8.885-10.095l-3.824-3.812.517-1.019.518-1.018.587.452c.323.249 1.989 1.837 3.702 3.53zM96.123 71.185l-1.875 2.819c-.308.501.513.578.862.081.569-.813 1.231-.545 5.215 2.106 4.587 3.053 4.71 3.169 4.375 4.13-.307.882.104 1.506.513.778.134-.239.956-1.49 1.828-2.781 1.704-2.522 1.754-2.634 1.26-2.823-.179-.069-.325-.033-.325.079s-.293.356-.652.542c-.799.413-.524.551-5.366-2.675-3.858-2.57-4.246-2.977-3.741-3.919.245-.458.147-.883-.202-.883-.101 0-.953 1.146-1.892 2.546zm-70.379-1.679c.061.298.258 2.195.438 4.216.44 4.93.725 5.987 2.274 8.44 1.577 2.497 2.021 4.325 2.397 9.879.441 6.511.935 6.114.944-.758.005-4.306-.373-5.77-2.221-8.607-1.346-2.066-1.71-3.209-2.206-6.931-.481-3.611-.825-5.143-1.377-6.136-.33-.594-.35-.602-.249-.103zm340.238.487c-.568 1.534-.771 2.525-1.143 5.58-.443 3.653-.853 4.983-2.123 6.894-2.22 3.339-2.747 6.377-2.207 12.716.241 2.835.444 2.124.762-2.662.336-5.062.725-7.026 1.799-9.085 2.526-4.84 2.546-4.908 2.976-10.138.118-1.43.272-2.966.344-3.413.17-1.071.014-1.029-.408.108zm-236.869-.433c-1.313 4.21-1.704 4.814-2.758 4.266-1.168-.606-1.166-.614.835-2.624 2.027-2.036 2.053-2.059 1.923-1.642zm164.459 2.894c-6.019 1.919-6.839 7.335-1.85 12.22l2.323 2.275 1.385-.812c1.628-.955 1.571-.946 2.138-.338.331.355.505.414.689.23.215-.215-.928-2.414-2.609-5.016-.388-.6-.888-.117-.618.598.605 1.603-2.452 2.831-3.686 1.481-2.229-2.44-.877-5.459 3.342-7.463 4.451-2.113 8.321 1.004 5.929 4.775-.538.848-.684 1.67-.298 1.67.052 0 .828-.495 1.723-1.099 1.661-1.121 1.896-1.558.903-1.676-.499-.06-.583-.204-.782-1.335-.748-4.247-4.666-6.761-8.589-5.51zm-170.627 5.394l-.132 1.95-1.538 2.059c-16.33 21.862-22.174 50.29-15.866 77.174l.643 2.743-.684 1.211c-.935 1.657-.968 1.651-1.479-.252-7.972-29.683-1.635-60.687 17.308-84.685.985-1.248 1.812-2.242 1.836-2.21s-.015.938-.088 2.01zm-34.559-.791c-.056.091-.595 1.33-1.198 2.752l-1.096 2.587 4.279 4.305 4.279 4.305-6.129-.143-6.128-.144-.445 1.041c-.244.572-.78 1.763-1.191 2.648-.576 1.239-.683 1.648-.469 1.784.413.262.444.246 1.099-.576.815-1.02.66-1.056 6.392 1.459 5.903 2.591 6.605 3.062 6.51 4.366-.057.782-.006.901.419.962.266.038.484-.04.484-.173s.481-1.261 1.068-2.507c1.022-2.167 1.05-2.275.645-2.492-.352-.188-.518-.115-.979.434-.629.747-1.268.835-2.62.358-1.042-.368-7.93-3.38-8.082-3.535-.059-.061 2.881-.039 6.533.048l6.642.158.25-.468c.325-.608-.11-1.152-3.999-5.002-1.625-1.609-3.344-3.384-3.819-3.944l-.863-1.019 3.716 1.621c5.949 2.596 5.889 2.553 5.794 4.014-.129 1.989.502 1.277 2.173-2.454l1.69-3.769c.301-.667-.672-.485-1.266.236-.925 1.122-1.34 1.037-6.967-1.431-6.372-2.793-6.291-2.737-6.118-4.207.124-1.06-.242-1.798-.604-1.214zM58.198 82.81c-.741.4-2.429 1.578-3.75 2.618-3.104 2.444-3.855 2.846-6.305 3.378-4.369.949-7.005 2.927-11.662 8.747-.6.751.929-.425 3.86-2.968 4.28-3.714 5.577-4.497 8.697-5.254 2.918-.707 3.635-1.128 7.692-4.508 3.822-3.184 3.938-3.344 1.468-2.013zm274.48-.279c.298.243 1.365 1.142 2.371 1.997 3.983 3.385 5.155 4.074 8.227 4.84 3.131.78 4.508 1.653 9.438 5.986 3.665 3.222 3.936 3.245 1.238.104-3.742-4.357-5.832-5.745-10.035-6.662-2.328-.508-2.914-.828-6.363-3.473-2.276-1.745-4.735-3.264-5.249-3.242-.093.004.075.206.373.45zm-27.216 3.508c.206 1.097-.096 1.316-4.42 3.21-4.717 2.065-5.504 2.248-6.159 1.426-1.213-1.521-.955-.188.706 3.65l2.197 5.192.553 1.359c.022.032.81-.27 1.751-.672 2.054-.876 2.239-1.327.559-1.36-1.402-.027-2.11-.496-2.815-1.865-1.064-2.068-.716-2.731 2.057-3.918l1.774-.758.231.66c.36 1.033.279 1.446-.42 2.145-1.201 1.201-.708 1.518 1.02.656.69-.344 1.723-.801 2.294-1.016.725-.272 1.004-.484.921-.699-.065-.171-.118-.341-.118-.38s-.386-.018-.857.045c-.744.1-.943.028-1.516-.546-1.106-1.106-1.018-1.184 3.388-3.007.314-.129 1.065 1.289 1.346 2.54.232 1.03.034 1.774-.67 2.525-1.045 1.116 1.676.887 2.799-.235.032-.032-.561-1.416-1.316-3.075l-2.1-4.804c-.752-1.852-1.471-2.492-1.205-1.073zm-23.842 8.332c9.459 18.891 12.441 40.062 8.574 60.878-.564 3.035-.567 3.036-1.503.715l-.701-1.74.348-2.326c2.891-19.333-.079-38.887-8.439-55.555-.646-1.29-1.175-2.468-1.175-2.619 0-.212 1.425-1.636 1.677-1.675.029-.004.577 1.04 1.219 2.322zm-224.797.462c-1.063 1.438-3.359 3.067-8.435 5.986-10.124 5.823-14.127 10.292-18.623 20.788-.61 1.424-1.158 2.638-1.218 2.698-.138.138.082-3.587.363-6.153.89-8.132 3.561-13.402 7.935-15.66 1.734-.894 8.012-3.3 8.613-3.3 1.357 0 8.205-2.767 10.622-4.292.596-.376 1.111-.686 1.144-.688s-.147.277-.401.621zm282.247 1.642c2.394 1.141 4.591 1.94 7.151 2.599 12.423 3.201 16.026 7.57 17.243 20.913.417 4.569.28 4.825-.97 1.809-4.287-10.345-8.656-15.197-19.09-21.202-5.021-2.889-6.61-4.024-8.078-5.768l-.569-.677 1.181.698c.65.384 2.06 1.117 3.132 1.628zM7.891 102.659c-.066 1.381 1.285 8.617 2.083 11.159 1.212 3.856 2.404 5.551 4.772 6.785 3.061 1.594 3.661 2.645 5.561 9.75.785 2.933 1.334 4.355 1.105 2.858l-.658-4.613c-.905-6.438-1.67-7.946-4.761-9.373-3.052-1.409-5.537-5.924-7.15-12.991-.757-3.317-.932-3.977-.952-3.575zm375.634 2.766c-1.788 8.011-4.053 12.143-7.643 13.947-2.987 1.501-3.604 2.885-4.631 10.372l-.571 3.901c-.315 1.56.44-.495 1.13-3.075 1.918-7.173 2.635-8.487 5.369-9.851 3.666-1.829 5.496-5.923 6.748-15.094.472-3.452.339-3.518-.402-.2zm-200.342 7.689c.787.82 1.273 2.131 1.278 3.449l.005 1.229-1.463 1.055c-7.812 5.636-16.266 8.387-26.638 8.669l-4.373.119-.447-.733c-.497-.814-.567-1.911-.214-3.313l.234-.929 3.07-.135c8.761-.384 17.572-3.318 25.78-8.585 2.329-1.495 2.172-1.448 2.768-.826zm-135.455 1.188c-.627.563-2.094 2.303-3.26 3.865-2.49 3.338-3.121 3.932-5.376 5.066-3.184 1.601-5.041 3.806-7.414 8.804-1.778 3.746-1.518 3.582 1.461-.921 2.939-4.441 4.823-6.496 7.09-7.729 1.953-1.064 2.753-1.719 4.008-3.285 1.047-1.307 4.855-6.826 4.709-6.826-.043 0-.591.462-1.218 1.026zm295.923-.243c.36.463 1.445 2.013 2.411 3.443 2.193 3.248 3.561 4.627 5.802 5.849 2.411 1.314 3.816 2.806 6.733 7.152l2.905 4.225.431.542-.346-.867c-2.259-5.654-4.914-9.264-7.988-10.862-2.572-1.337-3.48-2.137-5.46-4.814-1.889-2.552-3.949-4.856-4.723-5.28-.308-.169-.246-.006.235.612zm-113.031.864c1.251.177 4.225.763 6.609 1.302 17.132 3.871 22.36 3.749 28.13-.656.558-.425 1.013-.701 1.012-.612-.002.153 4.622 24.43 12.886 67.658l3.671 19.696c-.043.047-1.714.082-3.712.076-6.197-.016-11.872-.988-22.567-3.864-17.841-4.797-20.96-5.39-28.413-5.395-8.836-.006-14.791 1.977-20.802 6.928-1.482 1.221-1.059 2.521-3.596-11.048l-2.106-11.268 1.01-24.16c1.268-30.318.975-26.945 2.526-28.995 6.326-8.36 13.979-11.277 25.352-9.662zm-37.848 1.566c1.79 2.63 1.494 3.786-1.529 5.972-12.253 8.861-25.082 13.1-40.858 13.5-4.886.124-5.17.11-5.483-.28-1.198-1.493-1.865-4.415-1.01-4.424 19.155-.197 34.589-5.096 46.636-14.806 1.338-1.078 1.486-1.076 2.244.038zm-5.745.611l.502.135-.61.403c-.804.53-.936.51-.936-.136 0-.56.185-.632 1.044-.402zm-50.525.862c.443.111.512.23.41.704-.068.313-2.994 15.899-6.502 34.636l-6.38 34.067.337 1.145c2.887 9.821 10.729 11.756 32.147 7.934 15.259-2.723 19.008-3.236 19.431-2.658.439.601.367.682-.742.842-2.537.364-7.55 1.6-14.619 3.603-17.806 5.045-25.407 6.147-33.607 4.874-3.553-.551-9.25-2.376-9.25-2.962 0-.108 3.706-18.064 8.235-39.903 8.232-39.686 8.947-42.822 9.699-42.533a9.47 9.47 0 0 0 .841.251zm4.328 1.863c2.179 1.583 4.75 2.851 6.997 3.453l1.768.473-.138.922c-.166 1.107.166 2.234 1.031 3.5.346.507.6.928.565.936s-2.094.193-4.574.41c-5.096.447-4.715.321-4.86 1.609-.29 2.567 1.81 6.634 3.424 6.634.434 0 1.376.061 2.094.136l1.304.136.122 1.11c.068.61.475 1.974.906 3.03s.75 1.954.71 1.995-.3.157-.576.259c-.461.17-.211.432 3.042 3.185l3.544 2.999 2.948 5.796c2.84 5.583 3.795 7.341 4.111 7.572.081.06.705 1.474 1.386 3.142l5.876 13.917 4.638 11.075c0 .106-.707.257-1.571.335-1.81.164-5.919.805-13.164 2.053-22.294 3.84-31.235 1.976-34.455-7.183-.605-1.723-1.026.822 5.857-35.415 7.073-37.234 6.403-33.985 6.921-33.604l2.094 1.525zm132.372 15.661l10.169 41.171 7.182 29.035-2.935.07c-6.301.148-12.65-.708-28.721-3.876-25.796-5.084-41.024-3.799-50.52 4.263l-1.115.947-.348-1.893c-.456-2.485-.458-2.461.358-3.239 8.748-8.343 21.252-9.427 43.291-3.75 12.734 3.279 15.271 3.891 18.31 4.414 5.573.96 14.743 1.387 15.412.717.073-.073-1.883-10.69-4.347-23.595l-7.952-41.663-3.579-18.744c-.059-.297.324.483.85 1.734.752 1.785 1.602 4.891 3.945 14.409zm-72.646-10.597l.596.873-.055 24.167-.055 24.167-3.309-17.572-3.305-17.841c.005-.227 2.222-6.845 2.735-8.164.121-.31.084-.387-.146-.3-1.278.481-1.212.562-1.222-1.501-.01-2.107-.387-3.335-1.147-3.742-.456-.244-.417-.312 1.119-1.935l1.592-1.681 1.3 1.328c.715.73 1.568 1.721 1.897 2.201zm-75.481 35.849l-8.278 38.764c-.084.975 5.041 3.312 9.272 4.228 8.598 1.861 16.747.81 35.97-4.64 6.025-1.708 14.512-3.699 14.704-3.449.062.081 1.541 3.541 1.782 4.171.098.254-.409.334-2.875.45-6.406.302-10.072.746-25.854 3.136-19.765 2.994-31.352 2.589-39.436-1.375-.537-.263-1.159-.437-1.384-.387-.55.122-1.504 3.597 10.385-37.847l10.591-36.92 1.027-1.284a31.64 31.64 0 0 0 1.627-2.234c.331-.523.624-.928.652-.9s-3.654 17.257-8.183 38.287zm65.621-34.025c.984 1.93.747 2.836-1.099 4.201-10.362 7.663-19.771 10.82-32.321 10.845l-5.63.011-.316-.65c-.174-.357-.357-1.195-.407-1.861l-.09-1.211 4.086-.137c13.256-.445 24.354-4.214 33.881-11.506 1.187-.91 1.282-.894 1.896.308zm81.578.062c.549.828 1.109 2.297 2 5.255l12.183 40.144 10.852 36.133c-.304.303-5.275.565-8.509.447-6.923-.251-13.259-1.173-28.494-4.149-28.513-5.568-40.962-4.32-50.198 5.033l-1.985 2.01-.27-1.514c-.317-1.771-.369-1.68 2.073-3.68 9.726-7.966 21.124-8.681 49.946-3.131 8.245 1.587 13.815 2.532 17.81 3.019 6.263.764 14.693.857 14.693.161 0-.175-3.698-14.471-8.218-31.767l-10.41-39.9-2.306-8.829c-.192-.641.038-.429.833.768zm-154.962 39.047l-11.623 37.54c.026.03.504-.102 1.062-.292l1.016-.346 2.976 1.31c4.593 2.021 8.2 3.066 11.968 3.465l1.625.172-1.734.18c-3.955.41-13.04-.211-17.154-1.173-2.435-.57-5.943-1.762-6.057-2.058-.048-.125 5.228-14.359 11.724-31.63l11.745-31.468c-.036-.036-5.558 13.997-12.271 31.186L98 204.772c-.407.857.135 2.235.602 1.534.122-.183.588-.072 1.684.401 3.751 1.619 9.553 3.144 12.333 3.242 1.456.051-2.437.339-8.486.626-9.245.44-16.261.086-18.107-.914l-.526-.285 20.009-39.328 20.009-39.329 1.251-.998c.688-.549 1.446-1.218 1.684-1.486.298-.336.448-.397.481-.194.026.162-5.203 17.164-11.622 37.781zm97.729-36.782c-1.044.924-1.915 1.571-2.115 1.572-.101.001-.369.318-.596.705-2.803 4.771-2.738 9.061.113 7.328.494-.3.822-.365 1.175-.23.269.102.54.135.601.074s.327.002.589.143c.501.268.487 2.182-.02 2.694-.111.113-.203.369-.203.569s-.545.857-1.212 1.462c-1.31 1.19-1.688 1.207-2.278.103-.48-.897-.667-.527-1.849 3.673-.059.209-.018.379.09.379.293 0 .915-.745.919-1.1.002-.26.032-.261.193-.008.152.24.239.21.433-.154.134-.25.369-.407.522-.348s.509-.14.793-.442.63-.548.772-.548c1.031 0 3.068-3.509 3.296-5.676.239-2.264-.819-4.44-1.776-3.652-.41.337-2.49.396-2.755.077-.579-.698.423-4.129 1.352-4.625.663-.355 1.489-.016 1.797.739l.277.678.472-1.551c.761-2.504.624-2.936-.59-1.862zm61.124 1.478l.763.401c.058.046 28.029 80.314 28.083 80.589.163.836-6.256 1.511-13.07 1.374-7.789-.157-12.63-.819-28.08-3.841-14.683-2.872-20.879-3.795-27.066-4.033-12.872-.496-20.274 3.551-22.756 12.439-.455 1.63-.307 1.615-1.848.188-.693-.642-1.755-1.487-2.358-1.878-1.472-.954-1.438-1.303.318-3.2 9.05-9.774 23.928-11.441 53.73-6.02 17.236 3.135 27.118 3.955 34.072 2.825 1.196-.194 2.346 3.852-10.356-36.413l-13.857-44.194c0-.079.384.203.854.627s1.176.935 1.571 1.136zm-56.054 2.384c-3.197 1.662-4.19 7.736-1.402 8.571 1.88.563 4.251-.589 4.854-2.359.49-1.439.124-1.66-.906-.545-2.245 2.432-4.702.388-3.756-3.125.425-1.58 1.163-2.088 2.649-1.824.076.014.2.268.275.566s.23.542.345.542c.321 0 1.359-1.678 1.199-1.938-.217-.35-2.521-.271-3.258.112zm4.633.17c.134.162.311 1.503.393 2.98.212 3.843.198 4.055-.276 4.414-.389.294-.358.318.45.356l1.517.088c.869.064 1.067-.085.688-.515-.219-.25-.359-1.18-.462-3.067-.081-1.489-.196-2.914-.256-3.165s.037-.603.22-.786c.477-.477.227-.599-1.228-.599-1.063 0-1.247.052-1.046.294zm3.948 1.264c.275.515.481 2.889.505 5.823l.014 1.855 2.167.387c1.192.213 2.58.566 3.084.785 1.032.448 1.034.446 1.244-.82.168-1.014-.003-1.138-.825-.599-.695.455-3.122.451-3.586-.006-.074-.072-.239-.867-.368-1.766l-.234-1.635 1.081.128c.606.072 1.44.366 1.899.669.728.482.826.501.895.169.215-1.036-.013-1.238-1.417-1.259-2.251-.034-2.531-.247-2.531-1.925 0-1.993 1.613-1.793 3.685.455 1.123 1.218 1.254 1.121.554-.409-.473-1.035-.641-1.209-1.255-1.299-.39-.057-1.489-.31-2.443-.562-2.338-.619-2.805-.617-2.469.009zm-40.878 2.613l-.765 1.571 2.269 8.017 2.268 8.018-.82.975c-4.847 5.765-15.713 9.4-23.065 7.716-1.071-.245-2.044-.34-2.615-.254-1.379.207-2.268-1.339-5.847-10.171l-1.668-4.117-2.1-1.994-2.099-1.994 1.083.354c7.148 2.334 26.263-2.802 33.153-8.907.477-.423.89-.772.919-.777s-.292.699-.713 1.563zm48.44-.771c0 .108.084.289.188.403.646.707 1.095 6.525.565 7.333-.323.494-.308.512.813.942 1.371.526 1.382.521.836-.404-.782-1.325-1.313-5.236-.805-5.93.277-.38.348-.335 1.096.706.439.612.998 1.176 1.241 1.253.296.094.371.213.226.358s-.045.471.303.983c.286.422.52.885.52 1.028s.25.545.555.891a7.78 7.78 0 0 1 .892 1.28c1.399 2.694 1.91 1.967 1.14-1.626-.771-3.602-.848-4.393-.469-4.822.423-.48.387-.506-.926-.694l-1.083-.155.583.614c.556.586.77 1.368 1.156 4.234.102.754-.407.603-.749-.223-.132-.319-.531-.775-.886-1.013s-.645-.59-.645-.782-.295-.68-.654-1.084-.949-1.189-1.311-1.745-.922-1.108-1.244-1.224l-.963-.366c-.209-.084-.379-.065-.379.043zm23.327.446c-.055.089-.121 1.333-.147 2.763-.061 3.338-.062 3.358-.229 3.358-.078 0-.19.685-.25 1.523-.07.977-.236 1.662-.463 1.913-.458.506-.26.681.766.681.918 0 .975-.106.52-.982-.335-.646-.283-1.889.085-2.012.124-.041.226-.219.226-.395 0-.183-.105-.255-.246-.168-.174.108-.206-.062-.108-.583.49-2.607.38-6.964-.154-6.098zm.727 1.707c.003 2.098 1.19 4.631 2.171 4.631.411 0 .998.585.793.79-.071.07-.287-.029-.48-.222-.493-.494-2.486-.495-2.486-.002 0 .288.163.327.92.217 1.09-.156 1.204-.088 1.849 1.115.373.693.441 1.021.279 1.325-.317.592-.11.677 1.646.677 1.954 0 1.946-.279-.06-2.257-.251-.248-.655-.841-.898-1.318s-.645-1.052-.897-1.279-.456-.578-.456-.779-.196-.544-.435-.76-.393-.435-.343-.485-.144-.561-.432-1.134-.523-1.139-.523-1.256-.147-.334-.325-.482c-.284-.236-.325-.08-.323 1.219zm-9.978-.693c-.482.47-4.837.66-5.197.227-.483-.582-.645-.335-.645.98 0 1.409.189 1.619.663.734.274-.513.978-.951 1.529-.951.117 0 .325.317.461.705.245.694.25.696.378.163.237-.99.741-.757 1.036.481.233.981.226 1.177-.053 1.381-.178.131-.291.278-.25.325s.135.575.209 1.171c.122.987.105 1.046-.186.663-.309-.406-.457-.217-.328.419.122.608.063 2.227-.09 2.475-.211.342.224.66.91.665.616.004.729-4.819.163-6.931-.404-1.502-.406-1.462.097-1.622.489-.155 1.454.292 2.049.95.86.95 1.035.343.34-1.182-.476-1.045-.605-1.122-1.086-.653zm3.489-.064c-1.428.237-1.531.32-.922.747.307.214.475.559.475.973 0 .353.256 1.786.568 3.184.838 3.744.84 3.765.431 3.994-.631.353-.144.607 1.163.607 1.716 0 2.078-.144 1.55-.618-.236-.212-.548-1.061-.767-2.09-.532-2.497-.527-2.478-.642-2.663-.057-.093-.156-.612-.22-1.153s-.204-1.221-.312-1.51-.119-.72-.024-.958c.227-.572.238-.764.04-.733l-1.34.22zm-6.166 4.63c.179.796.303.969.298.415-.002-.228-.102-.562-.223-.74-.161-.238-.181-.15-.075.325zm-242.493.325c.407 1.924 2.573 8.033 3.556 10.028 1.921 3.898 3.184 5.176 5.943 6.014 2.642.803 3.915 2.429 6.398 8.172 1.094 2.53 2.556 5.408 2.119 4.171-.115-.324-.781-2.46-2.23-7.15-1.209-3.914-2.411-5.681-4.331-6.364-4.895-1.742-7.528-5.038-10.584-13.246-.875-2.351-1.12-2.809-.871-1.625zm380.833 2.009c-2.951 7.659-5.551 11.028-9.732 12.611-3.153 1.194-3.851 2.329-5.98 9.722-.544 1.888-1.088 3.618-1.21 3.846s-.163.414-.092.414c.144 0 1.505-2.856 2.932-6.152 1.69-3.904 3.113-5.564 5.404-6.306 4.066-1.316 6.481-5.048 9.095-14.055.891-3.07.746-3.098-.417-.08zm-43.781-1.431l2.548 3.709c2.553 3.721 3.596 4.783 6.004 6.111 2.453 1.352 3.996 3.03 7.086 7.707 2.986 4.518 3.241 4.74 1.812 1.582-2.325-5.142-4.34-7.641-7.475-9.271-2.222-1.154-3.526-2.337-5.266-4.777-1.796-2.519-3.027-3.957-4.116-4.811-.657-.515-.825-.586-.593-.25zm-293.236.539c-.451.369-1.931 2.145-3.289 3.948-2.7 3.584-3.187 4.046-5.482 5.201-3.09 1.556-5.137 4.032-7.529 9.104-1.69 3.582-1.408 3.363 1.692-1.315 3.133-4.727 4.557-6.264 7.155-7.722 2.229-1.251 3.644-2.694 5.776-5.891.874-1.311 1.875-2.749 2.224-3.196.768-.983.56-1.032-.547-.129zm200.518 1.32l-.023 2.113h.867c.913 0 1.164-.31.438-.54-.429-.136-.663-.734-1.062-2.71-.174-.864-.199-.734-.22 1.137zm-23.759 3.428c-.064.104.017.46.181.791.32.647.426 2.635.458 8.62.011 2.026-.06 3.846-.158 4.045-.154.31-.047.358.758.34 2.355-.053 4.144.137 4.898.521 1.071.546 1.009.604 1.336-1.235.375-2.111.151-2.383-.988-1.197-.733.763-1.002.895-2.084 1.018-1.705.195-1.893.001-1.89-1.945.001-.851-.046-2.097-.105-2.769-.157-1.783 2.005-1.869 3.461-.138l.556.66-.053-1.654c-.057-1.77-.094-1.862-.523-1.275-.22.301-.603.379-1.866.379h-1.588v-2.601-2.6l.915.041c1.154.051 2.217.861 2.986 2.275.834 1.532 1.331 1.453.656-.104-.093-.214-.111-.446-.041-.516s.014-.334-.125-.587-.283-.654-.32-.892c-.138-.886-.237-.98-.804-.765-.374.142-.859.111-1.579-.102-1.256-.371-3.918-.574-4.081-.31zm9.03 6.777c-1.11 1.337-.043 3.183 2.751 4.764 2.858 1.617 4.054 3.122 2.8 3.522-1.789.571-3.62-.332-4.6-2.27l-.372-.735-.506.627c-.881 1.092-.809 1.461.332 1.712.06.013.498.196.975.406 3.995 1.763 6.06 1.262 5.193-1.26-.362-1.051-1.161-1.879-2.675-2.772-2.12-1.251-4.084-3.553-3.114-3.652.09-.009.358-.056.596-.105.909-.186 1.565.157 2.509 1.312 1.014 1.24 1.381 1.432 1.558.814.06-.208.177-.544.26-.745.121-.293-.035-.416-.784-.618-.514-.138-1.397-.486-1.961-.772-1.128-.571-2.585-.683-2.962-.228zm7.003 2.427c-.184 1.475-.049 1.641.729.895 1.258-1.204 2.171-.798 2.362 1.051.067.652.182 1.187.255 1.187s.149.61.17 1.354.081 1.793.134 2.329c.061.614-.016 1.156-.206 1.464-.347.56-.193.659 1.716 1.109 1.591.375 2.818.133 1.48-.292-.532-.168-.584-.32-1.093-3.214l-.664-3.674c-.372-1.963.339-2.131 1.974-.465 1.378 1.405 1.702 1.097.857-.813-.548-1.238-.622-1.298-1.173-.954-.382.239-.802.241-2.413.014-1.073-.151-2.017-.236-2.098-.188s-.209-.015-.286-.138-.216-.175-.311-.117-.347-.086-.56-.321c-.585-.647-.709-.537-.873.773zm-42.233 36.323l8.652 35.034c-.468.468-14.781.376-15.255-.098-.172-.172-28.561-65.193-28.498-65.271.031-.039 1.552.414 3.381 1.005 10.169 3.288 14.833 2.43 20.985-3.86 1.013-1.036 1.876-1.855 1.919-1.821s4.01 15.789 8.816 35.011zm12.644-25.972a36.93 36.93 0 0 0-2.633 2.315l-1.201 1.192.02 1.679c.011.924.096 1.68.189 1.68s.084.225-.021.501-.247 1.617-.315 2.98l-.265 5.24c-.092 1.811-.064 2.763.079 2.763.458 0 2.678-2.017 2.406-2.185-.19-.118-.264-.939-.254-2.837l.014-2.67.652-.325c1.448-.722 3.638-2.665 3.413-3.029-.063-.102-.037-.217.057-.257s.5-.902.902-1.915c1.224-3.085.969-5.624-.608-6.062-1.007-.28-.785-.365-2.435.93zm2.838.976c.001.197-.198.143-.644-.174-.554-.395-.608-.517-.387-.871.273-.438 1.027.326 1.031 1.045zm-1.358 2.164c-.108 3.083-.535 4.25-2.06 5.62-1.35 1.213-1.309 1.251-1.387-1.292-.106-3.413.252-5.097 1.264-5.95.45-.378.888-.645.973-.592s.204.019.263-.077.316-.188.571-.207c.455-.035.462.017.376 2.498zm17.925 1.106c-.263.252-5.716.436-5.863.198-.315-.51-.683-.07-.892 1.067-.29 1.583-.237 1.619.774.524.639-.692.993-.903 1.516-.903h.684l.02 1.246a47.83 47.83 0 0 1-.018 2.191c-.025.63.04.896.197.8.129-.08.234-.487.234-.904 0-.45.088-.704.217-.624.328.203.26.816-.157 1.412-.206.294-.39.827-.41 1.186l-.06 1.124c-.013.26-.17.619-.35.799-.47.47-.16.562 1.535.458l1.771-.098c.393-.008.334-.439-.059-.439-.555 0-.776-1.05-.902-4.277-.14-3.596-.051-3.713 1.767-2.326 1.42 1.084 1.629.853.84-.927-.325-.734-.498-.838-.844-.507zm2.307 1.124c.303.303.42.634.352.993-.057.295-.021.895.08 1.333.331 1.439.474 4.524.218 4.683-.374.23-.277.587.142.526.827-.119 4.927.301 5.742.589 1.137.401 1.246.388 1.246-.142a2.26 2.26 0 0 1 .236-.89c.405-.756-.091-.955-.991-.398-.624.385-1.118.487-2.4.496-1.858.012-1.869.005-1.953-1.084-.035-.45-.118-1.184-.185-1.631-.12-.797-.108-.812.581-.811.981.001 2.327.403 3.032.905l.596.423v-1.013c0-.89-.046-.991-.379-.83-.525.253-3.721.283-3.874.036-.464-.752-.339-2.715.181-2.846.971-.243 2.732.461 3.906 1.562.444.417.87.697.944.622.153-.153-.374-1.461-.589-1.461-.076 0-.189-.195-.252-.433-.088-.338-.297-.434-.946-.437-.458-.002-1.71-.148-2.783-.324s-2.267-.321-2.654-.322h-.704l.454.454zm-14.864.825c-2.52 1.174-3.932 4.005-3.223 6.464.679 2.358 4.224 2.626 6.643.503 3.644-3.2.824-8.943-3.42-6.967zm23.53-.062c.347.41.966 3.203 1.137 5.125.07.794-.007 1.158-.332 1.571-.474.603-.468.608 1.12.953 1.168.253 1.299.168.725-.471-.241-.267-.506-.607-.59-.754-.421-.744-.901-5.575-.531-5.346.102.062.185.246.185.408s.113.332.252.378.279.274.312.506a1.01 1.01 0 0 0 .428.638c.789.466 1.608 1.245 1.608 1.528 0 .845 1.325 1.343 1.609.604.171-.446-1.505-2.819-2.225-3.15-.078-.036-.476-.456-.884-.932-.459-.536-.997-.915-1.409-.992-.366-.069-.91-.204-1.208-.3-.513-.165-.523-.153-.197.234zm-21.457.524c.23.123.419.367.419.541s.073.318.162.318.143 1.194.118 2.654l-.045 2.655-.764.704c-1.22 1.123-2.587.925-2.951-.428-.384-1.424-.282-4.653.171-5.428.546-.936 2.052-1.465 2.89-1.016zm27.772 1.001c.363.387.675 1.051.805 1.708a24.22 24.22 0 0 0 .424 1.791c.19.636.169.708-.185.65-.829-.137-1.336.641-.801 1.23.255.282.692.814.97 1.181 1.184 1.566 1.929.2.92-1.687-.194-.362-.24-.574-.667-3.059-.211-1.222-.197-1.435.109-1.658.451-.33.187-.485-1.12-.654l-1.047-.136.592.634zm2.903.095c-.346 1.729-.185 1.974.769 1.171.624-.525 1.576-.702 2.019-.376.248.182.353.509.493 1.525.061.441.297.846.616 1.054.573.376.656.925.246 1.62-.217.367-.217.479 0 .557.149.054.271.198.271.32s-.126.174-.279.115c-.201-.077-.256.088-.197.592.051.436-.045.825-.256 1.036-.393.393-.149.513 2.246 1.103 1.286.316 2.404.171 1.324-.172-.932-.296-2.668-7.482-1.808-7.482.424 0 1.497.659 2.103 1.292 1.067 1.113 1.33.687.528-.853-.546-1.048-.716-1.173-1.221-.903-.537.288-5.434-.441-6.159-.916-.555-.364-.559-.362-.695.317zm-204.716 1.875c-.485 1.227-.822 3.093-1.05 5.812-.311 3.696-.666 5-1.935 7.11-2.193 3.647-2.606 7.312-1.566 13.893l.172 1.084.138-1.409c.076-.774.197-2.968.269-4.875.183-4.844.58-6.607 2.072-9.195 1.45-2.515 1.657-3.55 2.095-10.469.174-2.741.162-2.856-.195-1.951zm214.113-.454c0 .103.195.309.434.458.274.172.433.506.433.912 0 .352.141 1.058.314 1.569.793 2.347 1.179 4.712.802 4.923-.53.296-.194.484 1.427.798 2.071.401 2.165.39 1.638-.188-.26-.286-.6-1.206-.82-2.221-.207-.954-.457-1.887-.556-2.075s-.228-.743-.287-1.235-.207-1.079-.328-1.305c-.159-.298-.134-.531.09-.852.301-.429.265-.447-1.131-.597-.793-.085-1.57-.204-1.728-.265s-.288-.025-.288.078zm83.739 1.592l.242 4.112c.174 3.188.677 5.101 1.913 7.272 1.496 2.63 1.839 4.288 2.083 10.068.244 5.802.214 5.493.441 4.55 1.256-5.21.676-10.627-1.53-14.301-1.178-1.96-1.469-2.914-1.738-5.701-.515-5.314-1.698-10.347-1.411-6zm-75.481.51c-.04 2.614-.915 6.225-1.621 6.683-.273.177-.015.288 1.375.59 1.168.253 1.3.168.725-.471-1.207-1.341-.829-1.895 1.293-1.895h1.564l.527.994c.423.797.478 1.073.281 1.389s-.178.422.086.523c.343.132 3.764.183 3.764.057 0-.039-.659-.761-1.463-1.605-1.704-1.787-2.871-3.18-2.871-3.426 0-.095-.142-.33-.317-.523s-.623-.931-.998-1.642c-1.487-2.815-2.31-3.052-2.345-.674zm1.603 2.453c.058.259.359.771.668 1.137l.561.667h-1.451c-1.087 0-1.424-.069-1.345-.276.058-.152.222-.835.364-1.517.267-1.288.561-1.594.723-.753.052.268.126-.195.166-1.029l.071-1.517.068 1.408c.037.775.116 1.621.175 1.88zm-22.135-2.42c.018.297.105.54.194.54.229.001.203-.816-.031-.96-.107-.066-.18.123-.163.42zm6.379.768c.096.656.1.657.425.193.276-.395.281-.497.028-.657-.484-.307-.555-.234-.453.464zm127.976 7.844c-5.796 7.4-9.405 10.043-13.967 10.227-3.276.132-4.571 1.177-8.208 6.62-1.234 1.847-2.449 3.597-2.7 3.887l-.456.529.573-.42c.314-.231 1.334-1.298 2.266-2.371 4.703-5.415 6.17-6.42 9.485-6.491 3.725-.08 6.707-2.493 11.557-9.353 2.653-3.752 3.422-5.147 1.45-2.628zM8.21 187.329c.797 1.398 4.192 6.004 5.535 7.508 3.46 3.877 5.22 4.939 8.321 5.02 2.87.075 3.974.692 6.898 3.856 2.483 2.686 5.648 5.943 4.977 5.121-.243-.298-1.443-2.036-2.667-3.863-3.819-5.701-5.08-6.742-8.31-6.868-4.217-.163-7.851-2.616-12.673-8.554-2.239-2.757-2.616-3.159-2.081-2.22zm52.782 14.852c-.393 1.712-.674 4.79-.681 7.478-.008 3.261-.349 5.03-1.442 7.495-1.837 4.144-2.182 7.99-1.296 14.432.629 4.566.79 3.926.74-2.934-.052-7.173.136-8.676 1.477-11.8 1.309-3.051 1.418-3.722 1.535-9.426.129-6.239.078-7.034-.333-5.245zm269.823 4.595c.098 6.399.172 6.884 1.533 10.064s1.512 4.335 1.473 11.328c-.039 6.961.128 7.787.726 3.576.892-6.287.488-11.072-1.219-14.459-1.101-2.183-1.31-3.291-1.515-8.019-.384-8.84-1.123-10.685-.998-2.49zm-150.48-2.817c1.224 2.791 1.254 2.598-.341 2.195-7.339-1.856-19.07-1.866-36.463-.03-1.704.18-3.21.317-3.346.305-.414-.035 10.229-1.873 16.112-2.781 10.52-1.624 15.526-2.144 20.218-2.099l2.774.026 1.046 2.384zm-5.068 2.564c2.666.414 6.052 1.143 6.514 1.402.44.246 5.989 13.025 5.832 13.432-.083.219-.527-.075-1.532-1.015-5.876-5.497-14.623-8.761-27.617-10.304-6.29-.748-9.282-.876-20.152-.868-6.018.005-10.796-.019-10.618-.052 1.956-.363 21.441-2.378 27.736-2.868 3.997-.311 17.256-.129 19.837.273zm77.675 6.355c1.656.461 1.675.411-.816 2.196-33.023 23.657-77.841 24.045-110.515.956-2.273-1.607-2.282-1.737-.13-1.798l1.544-.045 2.898 1.841c31.836 20.217 72.541 19.53 103.115-1.74 2.962-2.061 2.352-1.841 3.904-1.41zm49.021 4.025c-29.205 38.511-75.653 57.91-123.564 51.607-34.02-4.476-65.554-22.675-86.882-50.142l-2.251-2.963c-.081-.141.688.081 1.708.493 4.022 1.621 10.409 1.994 18.844 1.098a325.24 325.24 0 0 1 7.909-.704l11.159-.958 6.717-.623.759.543c7.115 5.097 10.776 7.362 16.422 10.164 33.228 16.49 74.711 12.37 103.258-10.256l1.479-1.172 3.722.674c19.233 3.483 32.197 3.46 40.934-.074 2.312-.935 2.321-1.029-.214 2.313zm-229.496 3.054c1.901 2.932 2.048 5.769.655 12.604-1.69 8.289-1.595 13.244.364 19.102.333.994.579 1.808.547 1.808-1.113 0-8.25-6.324-9.257-8.202l-.621-1.16.331-1.332c.182-.732 1.058-2.941 1.946-4.907 2.905-6.43 4.491-12.871 4.491-18.239 0-1.813.183-1.774 1.544.326zm248.954 2.637c.583 5.476 1.644 9.301 4.148 14.951 2.995 6.755 2.982 7.042-.476 10.505-1.678 1.68-6.933 5.644-6.933 5.229 0-.095.201-.749.446-1.453 2.001-5.75 2.111-10.529.442-19.217-1.524-7.932-1.289-10.342 1.332-13.659l.706-.894.052 1.186c.029.651.156 2.16.283 3.352zm-110.037-2.434c1.412 1.379 3.917 4.485 4.505 5.582.181.338.012.406-1.58.632l-2.553.371-.771.116-.496-2.675-.776-4.138c-.346-1.819-.301-1.816 1.671.112zm159.177.192c-5.235 5.822-9.424 8.455-13.602 8.55-4.368.099-5.303.668-9.222 5.609l-2.803 3.467c-1.349 1.617-.719 1.12 2.479-1.959 4.917-4.733 5.67-5.147 9.426-5.186 4.505-.046 8.134-2.766 14.391-10.785 1.535-1.968 1.263-1.844-.669.304zm-349.795-.575c6.355 8.253 10.018 11.022 14.621 11.054 3.654.024 4.285.374 9.235 5.106 2.862 2.737 4.561 4.008 2.65 1.983-.42-.445-1.707-1.996-2.86-3.448-3.803-4.789-4.837-5.44-8.811-5.549-4.586-.126-7.065-1.57-13.066-7.61-1.513-1.523-2.254-2.166-1.769-1.536zm169.074 6.096l.897 2.088-1.131-.141a26.76 26.76 0 0 1-2.282-.408l-1.151-.268 1.24-1.679c1.525-2.067 1.352-2.096 2.427.408zm-109.935 4.421c.069 1.416.351 3.02.895 5.093 1.597 6.086 1.654 6.699.931 10.017-.978 4.483-.141 8.245 3.377 15.174 1.501 2.957 1.49 2.654-.083-2.185-1.921-5.914-1.992-6.337-2.182-13.156-.178-6.398-.128-6.052-1.828-12.676-1.232-4.8-1.235-4.805-1.11-2.267zm231.05 2.971c-1.601 6.359-1.684 6.968-1.66 12.221.025 5.305-.25 6.917-2.211 12.938-1.646 5.057-1.551 5.24.505.975 3.162-6.562 3.742-9.549 2.771-14.27-.618-3.004-.563-3.712.669-8.499.967-3.759 1.654-8.294 1.256-8.294-.049 0-.648 2.218-1.33 4.929zm-93.93 8.314c-3.696 1.421-4.194 5.699-1.349 11.602 2.928 6.074 11.102 4.262 10.285-2.28-.937-7.493-4.371-11.076-8.936-9.322zm-43.448.474l-3.846.211v.756.756l1.138-.149 2.089-.278.951-.129-.151.805c-.203 1.08-2.907 9.391-3.312 10.179l-.321.624-1.606-.146c-1.491-.135-1.605-.116-1.605.273 0 .358.419.517 2.921 1.107 1.606.38 3.649.915 4.54 1.19 1.678.518 1.857.509 1.857-.094 0-.244-.386-.479-1.219-.741l-1.218-.385.131-.954c.072-.526 1.011-3.564 2.088-6.752l2.008-6.114c.067-.409.077-.408-4.445-.159zm46.168 1.227c2.2 2.2 4.435 10.207 3.238 11.599-1.88 2.186-4.366-.885-6.222-7.687-1.054-3.863.714-6.182 2.984-3.912zm-14.497.851c-4.935 1.579-7.581 7.613-5.446 12.419 2.54 5.717 10.945 3.532 10.386-2.7-.345-3.832-4.246-5.433-6.908-2.834-1.023.999-1.075.943-.816-.888.46-3.25 2.313-5.305 4.795-5.319.944-.006 1.246-.346.685-.771-.53-.401-1.226-.377-2.696.093zm-17.553.047c-4.025.596-6.089 6.142-3.242 8.714 1.423 1.286 3.203 1.33 5.1.127l1.018-.645-.145.711c-.677 3.318-2.864 5.412-5.743 5.5l-1.49.065c-.044.012.05.178.208.369 1.82 2.193 8.491-1.159 9.923-4.986 2.268-6.063-.345-10.638-5.629-9.855zm2.163 1.413c1.417.992 1.55 4.665.214 5.909-.931.868-2.931.409-3.401-.781-1.274-3.221.904-6.727 3.187-5.128zm-83.167 4.047c-.027.719.453 3.491.852 4.917l1.194 4.117c.859 2.906.912 3.551.744 8.992-.094 3.06.329 5.045 1.843 8.646 1.029 2.447 3.125 6.646 3.142 6.295.013-.277-.879-3.046-2.335-7.249-1.759-5.073-1.856-5.613-1.811-10.119.026-2.735-.057-4.397-.273-5.425-.369-1.752-3.335-10.744-3.356-10.174zm177.068 4.666c-2.039 6.358-2.09 6.636-1.915 10.323.195 4.085-.103 5.631-2.39 12.421-1.019 3.021-1.811 5.534-1.762 5.583.178.178 3.415-6.78 4.039-8.683 1.022-3.111 1.221-4.882.912-8.093s-.163-4.246 1.251-8.846c.938-3.055 1.618-6.255 1.507-7.097-.039-.297-.739 1.573-1.642 4.392zm-77.52-1.638c2.401 2.401.74 7.126-2.006 5.706-1.604-.83-2.324-4.81-1.066-5.894.929-.8 2.159-.725 3.072.188zm-162.925 4.518c.068.11 1.566 1.157 3.331 2.327 7.37 4.888 11.621 6.252 14.744 4.73 1.404-.685 2.81-.757 4.565-.236 1.268.377 2.035.732 6.396 2.965 1.56.799 2.915 1.453 3.012 1.453s-1.423-1.118-3.378-2.485c-5.931-4.147-7.745-4.799-10.33-3.711-3.893 1.638-8.3.602-15.811-3.717-1.459-.839-2.597-1.436-2.529-1.326zm303.232 1.199c-7.211 4.278-12.194 5.48-16.026 3.868-2.699-1.136-4.392-.512-10.817 3.989-1.714 1.2-3.026 2.183-2.915 2.183s2-.918 4.199-2.039c5.763-2.937 7.519-3.297 10.066-2.062 3.039 1.473 8.103-.331 15.656-5.579 1.709-1.188 2.219-1.602 1.95-1.585-.03.002-.981.554-2.113 1.225zm-216.559 8.642c.784 1.879 1.535 3.154 3.599 6.107 2.726 3.898 3.247 4.959 4.051 8.251 1.019 4.168 2.246 6.193 6.642 10.959 4.348 4.715 4.224 4.044-.337-1.818-3.957-5.086-5.048-7.039-5.976-10.701-.847-3.339-1.551-4.584-5.899-10.425l-2.347-3.131c-.049-.054.071.288.267.758zm129.346 3.449c-3.498 4.707-4.267 6.096-5.072 9.167-1.047 3.991-2.07 5.799-6.548 11.573-3.547 4.575-3.687 5.065-.518 1.815 4.955-5.082 6.503-7.602 7.502-12.212.568-2.621 1.113-3.697 3.867-7.627 2.023-2.889 3.896-6.152 3.663-6.385-.053-.053-1.355 1.598-2.894 3.669zm-164.25 14.963c-.119.037-.567.126-.996.198-.44.073-1.304.537-1.985 1.066-3.582 2.782-7.886 2.979-16.709.765-3.616-.907-3.327-.674.787.635 9.012 2.869 13.566 3.06 16.087.677 1.891-1.788 4.321-1.966 10.331-.757 2.102.424 4.099.759 4.438.745.441-.018.493-.053.182-.124-.239-.055-2.335-.719-4.659-1.476s-4.713-1.438-5.309-1.513l-1.517-.21c-.238-.041-.53-.043-.65-.006zm200.254.153c-1.515.173-11.078 3.184-10.147 3.195.279.003 2.227-.34 4.329-.764 6.01-1.209 8.44-1.031 10.331.757 2.535 2.397 7.036 2.208 16.087-.676 4.114-1.31 4.402-1.542.787-.636-8.669 2.175-13.331 1.979-16.642-.701-1.569-1.27-2.307-1.453-4.745-1.175zm-165.016 16.641c-1.202.251-1.809.647-3.204 2.089-2.748 2.84-7.264 3.683-16.432 3.069l-2.167-.145 1.408.292c9.273 1.925 15.375 1.371 18.167-1.65 1.987-2.15 2.444-2.257 9.461-2.226 3.217.015 5.606-.014 5.308-.063l-4.333-.717c-4.414-.731-6.879-.926-8.208-.649zm127.276.011c-.834.111-3.126.492-5.092.845l-3.575.644 4.996-.127c6.977-.177 8.045.081 10.391 2.506 2.654 2.744 6.949 3.195 16.309 1.713 3.637-.576 3.537-.7-.303-.377-7.906.664-12.504-.322-15.408-3.303-1.83-1.879-3.751-2.378-7.318-1.901z" fill="#24468e"/></svg>