<svg xmlns="http://www.w3.org/2000/svg" xmlns:xlink="http://www.w3.org/1999/xlink" viewBox="0,0,256,256" width="100px" height="100px" fill-rule="nonzero"><g fill="#d3fbd8" fill-rule="nonzero" stroke="none" stroke-width="1" stroke-linecap="butt" stroke-linejoin="miter" stroke-miterlimit="10" stroke-dasharray="" stroke-dashoffset="0" font-family="none" font-weight="none" font-size="none" text-anchor="none" style="mix-blend-mode: normal"><g transform="scale(2.56,2.56)"><path d="M20,19c-4.40644,0 -8,3.59356 -8,8v43h-3c-0.55226,0.00006 -0.99994,0.44774 -1,1v3c0,3.85433 3.14567,7 7,7h70c3.85433,0 7,-3.14567 7,-7v-3c-0.00006,-0.55226 -0.44774,-0.99994 -1,-1h-3v-43c0,-4.40644 -3.59356,-8 -8,-8zM20,21h60c3.32556,0 6,2.67444 6,6v43h-72v-43c0,-3.32556 2.67444,-6 6,-6zM48.5,24c-0.18032,-0.00255 -0.34804,0.09219 -0.43894,0.24794c-0.0909,0.15575 -0.0909,0.34838 0,0.50413c0.0909,0.15575 0.25863,0.25049 0.43894,0.24794h3c0.18032,0.00255 0.34804,-0.09219 0.43894,-0.24794c0.0909,-0.15575 0.0909,-0.34838 0,-0.50413c-0.0909,-0.15575 -0.25863,-0.25049 -0.43894,-0.24794zM17.5,28c-0.27613,0.00003 -0.49997,0.22387 -0.5,0.5v26c-0.00255,0.18032 0.09219,0.34804 0.24794,0.43894c0.15575,0.0909 0.34838,0.0909 0.50413,0c0.15575,-0.0909 0.25049,-0.25863 0.24794,-0.43894v-25.5h64.5c0.18032,0.00255 0.34804,-0.09219 0.43894,-0.24794c0.0909,-0.15575 0.0909,-0.34838 0,-0.50413c-0.0909,-0.15575 -0.25863,-0.25049 -0.43894,-0.24794zM82.49219,31.99219c-0.13261,0.00207 -0.25896,0.05673 -0.35127,0.15197c-0.0923,0.09523 -0.14299,0.22324 -0.14092,0.35584v34.5h-64v-4.5c0.00255,-0.18032 -0.09219,-0.34804 -0.24794,-0.43894c-0.15575,-0.0909 -0.34838,-0.0909 -0.50413,0c-0.15575,0.0909 -0.25049,0.25863 -0.24794,0.43894v5c0.00003,0.27613 0.22387,0.49997 0.5,0.5h65c0.27613,-0.00003 0.49997,-0.22387 0.5,-0.5v-35c0.00212,-0.13532 -0.0507,-0.26572 -0.1464,-0.36141c-0.0957,-0.0957 -0.22609,-0.14852 -0.36141,-0.1464zM17.49219,55.99219c-0.13261,0.00207 -0.25896,0.05673 -0.35127,0.15197c-0.0923,0.09523 -0.14299,0.22324 -0.14092,0.35584v4c-0.00255,0.18032 0.09219,0.34804 0.24794,0.43894c0.15575,0.0909 0.34838,0.0909 0.50413,0c0.15575,-0.0909 0.25049,-0.25863 0.24794,-0.43894v-4c0.00212,-0.13532 -0.0507,-0.26572 -0.1464,-0.36141c-0.0957,-0.0957 -0.22609,-0.14852 -0.36141,-0.1464zM10,72h3h74h3v2c0,2.77367 -2.22633,5 -5,5h-70c-2.77367,0 -5,-2.22633 -5,-5zM46.5,74c-0.18032,-0.00255 -0.34804,0.09219 -0.43894,0.24794c-0.0909,0.15575 -0.0909,0.34838 0,0.50413c0.0909,0.15575 0.25863,0.25049 0.43894,0.24794h7c0.18032,0.00255 0.34804,-0.09219 0.43894,-0.24794c0.0909,-0.15575 0.0909,-0.34838 0,-0.50413c-0.0909,-0.15575 -0.25863,-0.25049 -0.43894,-0.24794z"></path></g></g></svg>